<?xml version="1.0" encoding="UTF-8"?>
<!--Generator: Apple Native CoreSVG 175-->
<!DOCTYPE svg
PUBLIC "-//W3C//DTD SVG 1.1//EN"
       "http://www.w3.org/Graphics/SVG/1.1/DTD/svg11.dtd">
<svg version="1.1" xmlns="http://www.w3.org/2000/svg" xmlns:xlink="http://www.w3.org/1999/xlink" width="3300" height="2200">
 <!--glyph: "", point size: 100.0, font version: "17.1d1e1", template writer version: "65.1"-->
 <g id="Notes">
  <rect height="2200" id="artboard" style="fill:white;opacity:1" width="3300" x="0" y="0"/>
  <line style="fill:none;stroke:black;opacity:1;stroke-width:0.5;" x1="263" x2="3036" y1="292" y2="292"/>
  <text style="stroke:none;fill:black;font-family:sans-serif;font-size:13;font-weight:bold;" transform="matrix(1 0 0 1 263 322)">Weight/Scale Variations</text>
  <text style="stroke:none;fill:black;font-family:sans-serif;font-size:13;text-anchor:middle;" transform="matrix(1 0 0 1 559.711 322)">Ultralight</text>
  <text style="stroke:none;fill:black;font-family:sans-serif;font-size:13;text-anchor:middle;" transform="matrix(1 0 0 1 856.422 322)">Thin</text>
  <text style="stroke:none;fill:black;font-family:sans-serif;font-size:13;text-anchor:middle;" transform="matrix(1 0 0 1 1153.13 322)">Light</text>
  <text style="stroke:none;fill:black;font-family:sans-serif;font-size:13;text-anchor:middle;" transform="matrix(1 0 0 1 1449.84 322)">Regular</text>
  <text style="stroke:none;fill:black;font-family:sans-serif;font-size:13;text-anchor:middle;" transform="matrix(1 0 0 1 1746.56 322)">Medium</text>
  <text style="stroke:none;fill:black;font-family:sans-serif;font-size:13;text-anchor:middle;" transform="matrix(1 0 0 1 2043.27 322)">Semibold</text>
  <text style="stroke:none;fill:black;font-family:sans-serif;font-size:13;text-anchor:middle;" transform="matrix(1 0 0 1 2339.98 322)">Bold</text>
  <text style="stroke:none;fill:black;font-family:sans-serif;font-size:13;text-anchor:middle;" transform="matrix(1 0 0 1 2636.69 322)">Heavy</text>
  <text style="stroke:none;fill:black;font-family:sans-serif;font-size:13;text-anchor:middle;" transform="matrix(1 0 0 1 2933.4 322)">Black</text>
  <line style="fill:none;stroke:black;opacity:1;stroke-width:0.5;" x1="263" x2="3036" y1="1903" y2="1903"/>
  <g transform="matrix(1 0 0 1 263 1933)">
   <path d="M9.24805 0.830078Q10.8691 0.830078 12.2949 0.214844Q13.7207-0.400391 14.8096-1.49414Q15.8984-2.58789 16.5186-4.01367Q17.1387-5.43945 17.1387-7.05078Q17.1387-8.66211 16.5186-10.0879Q15.8984-11.5137 14.8047-12.6074Q13.7109-13.7012 12.2852-14.3164Q10.8594-14.9316 9.23828-14.9316Q7.62695-14.9316 6.20117-14.3164Q4.77539-13.7012 3.69141-12.6074Q2.60742-11.5137 1.9873-10.0879Q1.36719-8.66211 1.36719-7.05078Q1.36719-5.43945 1.9873-4.01367Q2.60742-2.58789 3.69629-1.49414Q4.78516-0.400391 6.21094 0.214844Q7.63672 0.830078 9.24805 0.830078ZM9.24805-0.654297Q7.91992-0.654297 6.7627-1.14746Q5.60547-1.64062 4.73145-2.51953Q3.85742-3.39844 3.36426-4.56055Q2.87109-5.72266 2.87109-7.05078Q2.87109-8.37891 3.35938-9.54102Q3.84766-10.7031 4.72168-11.582Q5.5957-12.4609 6.75293-12.9541Q7.91016-13.4473 9.23828-13.4473Q10.5762-13.4473 11.7334-12.9541Q12.8906-12.4609 13.7695-11.582Q14.6484-10.7031 15.1465-9.54102Q15.6445-8.37891 15.6445-7.05078Q15.6445-5.72266 15.1514-4.56055Q14.6582-3.39844 13.7842-2.51953Q12.9102-1.64062 11.748-1.14746Q10.5859-0.654297 9.24805-0.654297ZM5.6543-7.05078Q5.6543-6.72852 5.85938-6.52832Q6.06445-6.32812 6.40625-6.32812L8.51562-6.32812L8.51562-4.20898Q8.51562-3.88672 8.71094-3.67676Q8.90625-3.4668 9.23828-3.4668Q9.56055-3.4668 9.77051-3.67676Q9.98047-3.88672 9.98047-4.20898L9.98047-6.32812L12.0898-6.32812Q12.4219-6.32812 12.627-6.52832Q12.832-6.72852 12.832-7.05078Q12.832-7.38281 12.627-7.58789Q12.4219-7.79297 12.0898-7.79297L9.98047-7.79297L9.98047-9.90234Q9.98047-10.2344 9.77051-10.4443Q9.56055-10.6543 9.23828-10.6543Q8.90625-10.6543 8.71094-10.4443Q8.51562-10.2344 8.51562-9.90234L8.51562-7.79297L6.40625-7.79297Q6.06445-7.79297 5.85938-7.58789Q5.6543-7.38281 5.6543-7.05078Z"/>
  </g>
  <g transform="matrix(1 0 0 1 281.867 1933)">
   <path d="M11.709 2.91016Q13.75 2.91016 15.5518 2.12891Q17.3535 1.34766 18.7305-0.0292969Q20.1074-1.40625 20.8887-3.20801Q21.6699-5.00977 21.6699-7.05078Q21.6699-9.0918 20.8887-10.8936Q20.1074-12.6953 18.7305-14.0723Q17.3535-15.4492 15.5469-16.2305Q13.7402-17.0117 11.6992-17.0117Q9.6582-17.0117 7.85645-16.2305Q6.05469-15.4492 4.68262-14.0723Q3.31055-12.6953 2.5293-10.8936Q1.74805-9.0918 1.74805-7.05078Q1.74805-5.00977 2.5293-3.20801Q3.31055-1.40625 4.6875-0.0292969Q6.06445 1.34766 7.86621 2.12891Q9.66797 2.91016 11.709 2.91016ZM11.709 1.25Q9.98047 1.25 8.47656 0.605469Q6.97266-0.0390625 5.83496-1.17676Q4.69727-2.31445 4.05762-3.81836Q3.41797-5.32227 3.41797-7.05078Q3.41797-8.7793 4.05762-10.2832Q4.69727-11.7871 5.83008-12.9297Q6.96289-14.0723 8.4668-14.7119Q9.9707-15.3516 11.6992-15.3516Q13.4277-15.3516 14.9316-14.7119Q16.4355-14.0723 17.5781-12.9297Q18.7207-11.7871 19.3652-10.2832Q20.0098-8.7793 20.0098-7.05078Q20.0098-5.32227 19.3701-3.81836Q18.7305-2.31445 17.5928-1.17676Q16.4551-0.0390625 14.9463 0.605469Q13.4375 1.25 11.709 1.25ZM7.17773-7.05078Q7.17773-6.69922 7.41211-6.47461Q7.64648-6.25 8.01758-6.25L10.8887-6.25L10.8887-3.36914Q10.8887-2.99805 11.1133-2.76855Q11.3379-2.53906 11.6895-2.53906Q12.0605-2.53906 12.29-2.76855Q12.5195-2.99805 12.5195-3.36914L12.5195-6.25L15.4004-6.25Q15.7715-6.25 16.001-6.47461Q16.2305-6.69922 16.2305-7.05078Q16.2305-7.42188 16.001-7.65137Q15.7715-7.88086 15.4004-7.88086L12.5195-7.88086L12.5195-10.752Q12.5195-11.1328 12.29-11.3623Q12.0605-11.5918 11.6895-11.5918Q11.3379-11.5918 11.1133-11.3574Q10.8887-11.123 10.8887-10.752L10.8887-7.88086L8.01758-7.88086Q7.63672-7.88086 7.40723-7.65137Q7.17773-7.42188 7.17773-7.05078Z"/>
  </g>
  <g transform="matrix(1 0 0 1 305.646 1933)">
   <path d="M14.9707 5.66406Q17.0605 5.66406 18.96 5.01465Q20.8594 4.36523 22.4512 3.19336Q24.043 2.02148 25.2197 0.429688Q26.3965-1.16211 27.0459-3.06641Q27.6953-4.9707 27.6953-7.05078Q27.6953-9.14062 27.0459-11.04Q26.3965-12.9395 25.2197-14.5312Q24.043-16.123 22.4512-17.2998Q20.8594-18.4766 18.9551-19.126Q17.0508-19.7754 14.9609-19.7754Q12.8711-19.7754 10.9717-19.126Q9.07227-18.4766 7.48535-17.2998Q5.89844-16.123 4.72168-14.5312Q3.54492-12.9395 2.90039-11.04Q2.25586-9.14062 2.25586-7.05078Q2.25586-4.9707 2.90527-3.06641Q3.55469-1.16211 4.72656 0.429688Q5.89844 2.02148 7.49023 3.19336Q9.08203 4.36523 10.9814 5.01465Q12.8809 5.66406 14.9707 5.66406ZM14.9707 3.84766Q13.1641 3.84766 11.5283 3.2959Q9.89258 2.74414 8.53516 1.74805Q7.17773 0.751953 6.17676-0.610352Q5.17578-1.97266 4.62891-3.6084Q4.08203-5.24414 4.08203-7.05078Q4.08203-8.86719 4.62891-10.5029Q5.17578-12.1387 6.17188-13.501Q7.16797-14.8633 8.52539-15.8594Q9.88281-16.8555 11.5186-17.4023Q13.1543-17.9492 14.9609-17.9492Q16.7773-17.9492 18.4131-17.4023Q20.0488-16.8555 21.4111-15.8594Q22.7734-14.8633 23.7695-13.501Q24.7656-12.1387 25.3174-10.5029Q25.8691-8.86719 25.8691-7.05078Q25.8789-5.24414 25.332-3.6084Q24.7852-1.97266 23.7842-0.610352Q22.7832 0.751953 21.4209 1.74805Q20.0586 2.74414 18.4229 3.2959Q16.7871 3.84766 14.9707 3.84766ZM9.19922-7.05078Q9.19922-6.66992 9.45801-6.4209Q9.7168-6.17188 10.1172-6.17188L14.0625-6.17188L14.0625-2.2168Q14.0625-1.81641 14.3115-1.55762Q14.5605-1.29883 14.9512-1.29883Q15.3516-1.29883 15.6104-1.55273Q15.8691-1.80664 15.8691-2.2168L15.8691-6.17188L19.8242-6.17188Q20.2246-6.17188 20.4785-6.4209Q20.7324-6.66992 20.7324-7.05078Q20.7324-7.46094 20.4785-7.71484Q20.2246-7.96875 19.8242-7.96875L15.8691-7.96875L15.8691-11.9141Q15.8691-12.3242 15.6104-12.583Q15.3516-12.8418 14.9512-12.8418Q14.5605-12.8418 14.3115-12.583Q14.0625-12.3242 14.0625-11.9141L14.0625-7.96875L10.1172-7.96875Q9.70703-7.96875 9.45312-7.71484Q9.19922-7.46094 9.19922-7.05078Z"/>
  </g>
  <text style="stroke:none;fill:black;font-family:sans-serif;font-size:13;font-weight:bold;" transform="matrix(1 0 0 1 263 1953)">Design Variations</text>
  <text style="stroke:none;fill:black;font-family:sans-serif;font-size:13;" transform="matrix(1 0 0 1 263 1971)">Symbols are supported in up to nine weights and three scales.</text>
  <text style="stroke:none;fill:black;font-family:sans-serif;font-size:13;" transform="matrix(1 0 0 1 263 1989)">For optimal layout with text and other symbols, vertically align</text>
  <text style="stroke:none;fill:black;font-family:sans-serif;font-size:13;" transform="matrix(1 0 0 1 263 2007)">symbols with the adjacent text.</text>
  <line style="fill:none;stroke:#00AEEF;stroke-width:0.5;opacity:1.0;" x1="776" x2="776" y1="1919" y2="1933"/>
  <g transform="matrix(1 0 0 1 776 1933)">
   <path d="M3.31055 0.15625Q3.70117 0.15625 3.91602-0.00976562Q4.13086-0.175781 4.26758-0.585938L5.52734-4.0332L11.2891-4.0332L12.5488-0.585938Q12.6855-0.175781 12.9004-0.00976562Q13.1152 0.15625 13.4961 0.15625Q13.8867 0.15625 14.1162-0.0585938Q14.3457-0.273438 14.3457-0.644531Q14.3457-0.869141 14.2383-1.17188L9.6582-13.3691Q9.48242-13.8184 9.17969-14.043Q8.87695-14.2676 8.4082-14.2676Q7.5-14.2676 7.17773-13.3789L2.59766-1.16211Q2.49023-0.859375 2.49023-0.634766Q2.49023-0.263672 2.70996-0.0537109Q2.92969 0.15625 3.31055 0.15625ZM6.00586-5.51758L8.37891-12.0898L8.42773-12.0898L10.8008-5.51758Z"/>
  </g>
  <line style="fill:none;stroke:#00AEEF;stroke-width:0.5;opacity:1.0;" x1="793.197" x2="793.197" y1="1919" y2="1933"/>
  <text style="stroke:none;fill:black;font-family:sans-serif;font-size:13;font-weight:bold;" transform="matrix(1 0 0 1 776 1953)">Margins</text>
  <text style="stroke:none;fill:black;font-family:sans-serif;font-size:13;" transform="matrix(1 0 0 1 776 1971)">Leading and trailing margins on the left and right side of each symbol</text>
  <text style="stroke:none;fill:black;font-family:sans-serif;font-size:13;" transform="matrix(1 0 0 1 776 1989)">can be adjusted by modifying the x-location of the margin guidelines.</text>
  <text style="stroke:none;fill:black;font-family:sans-serif;font-size:13;" transform="matrix(1 0 0 1 776 2007)">Modifications are automatically applied proportionally to all</text>
  <text style="stroke:none;fill:black;font-family:sans-serif;font-size:13;" transform="matrix(1 0 0 1 776 2025)">scales and weights.</text>
  <g transform="matrix(1 0 0 1 1289 1933)">
   <path d="M2.8418 1.86523L4.54102 3.57422Q5.18555 4.22852 5.90332 4.17969Q6.62109 4.13086 7.31445 3.35938L18.0078-8.42773L17.041-9.4043L6.42578 2.27539Q6.16211 2.57812 5.89355 2.61719Q5.625 2.65625 5.27344 2.30469L4.10156 1.14258Q3.75 0.791016 3.79395 0.522461Q3.83789 0.253906 4.14062-0.0195312L15.6152-10.8203L14.6387-11.7871L3.04688-0.898438Q2.30469-0.214844 2.25098 0.498047Q2.19727 1.21094 2.8418 1.86523ZM9.25781-16.3281Q8.94531-16.0254 8.90625-15.6348Q8.86719-15.2441 9.04297-14.9512Q9.21875-14.6777 9.55566-14.541Q9.89258-14.4043 10.3809-14.5215Q11.4746-14.7754 12.5977-14.7314Q13.7207-14.6875 14.7949-13.9844L14.209-12.5293Q13.9551-11.9043 14.0674-11.4404Q14.1797-10.9766 14.5801-10.5664L16.875-8.25195Q17.2363-7.88086 17.5781-7.82227Q17.9199-7.76367 18.3398-7.8418L19.4043-8.03711L20.0684-7.36328L20.0293-6.80664Q20-6.43555 20.1221-6.12305Q20.2441-5.81055 20.6055-5.44922L21.3672-4.70703Q21.7285-4.3457 22.1533-4.33105Q22.5781-4.31641 22.9297-4.66797L25.8398-7.58789Q26.1914-7.93945 26.1816-8.35449Q26.1719-8.76953 25.8105-9.13086L25.0391-9.89258Q24.6875-10.2539 24.3799-10.3857Q24.0723-10.5176 23.7109-10.4883L23.1348-10.4395L22.4902-11.0742L22.7344-12.1973Q22.832-12.6172 22.6953-12.9834Q22.5586-13.3496 22.1191-13.7891L19.9219-15.9766Q18.6719-17.2168 17.2607-17.8369Q15.8496-18.457 14.4189-18.4814Q12.9883-18.5059 11.665-17.959Q10.3418-17.4121 9.25781-16.3281ZM10.752-15.957Q11.6602-16.6211 12.7002-16.9043Q13.7402-17.1875 14.8047-17.085Q15.8691-16.9824 16.8701-16.5137Q17.8711-16.0449 18.7012-15.2051L21.1328-12.793Q21.3086-12.6172 21.3525-12.4512Q21.3965-12.2852 21.3379-12.0312L21.0156-10.5469L22.5195-9.0625L23.5059-9.12109Q23.6914-9.13086 23.7891-9.09668Q23.8867-9.0625 24.0332-8.91602L24.6094-8.33984L22.168-5.89844L21.5918-6.47461Q21.4453-6.62109 21.4062-6.71875Q21.3672-6.81641 21.377-7.01172L21.4453-7.98828L19.9512-9.47266L18.4277-9.21875Q18.1836-9.16992 18.042-9.2041Q17.9004-9.23828 17.7148-9.41406L15.7129-11.416Q15.5176-11.5918 15.4932-11.7529Q15.4688-11.9141 15.5859-12.1875L16.4648-14.2773Q15.293-15.3711 13.8281-15.791Q12.3633-16.2109 10.8398-15.7617Q10.7227-15.7324 10.6885-15.8057Q10.6543-15.8789 10.752-15.957Z"/>
  </g>
  <text style="stroke:none;fill:black;font-family:sans-serif;font-size:13;font-weight:bold;" transform="matrix(1 0 0 1 1289 1953)">Exporting</text>
  <text style="stroke:none;fill:black;font-family:sans-serif;font-size:13;" transform="matrix(1 0 0 1 1289 1971)">Symbols should be outlined when exporting to ensure the</text>
  <text style="stroke:none;fill:black;font-family:sans-serif;font-size:13;" transform="matrix(1 0 0 1 1289 1989)">design is preserved when submitting to Xcode.</text>
  <text id="template-version" style="stroke:none;fill:black;font-family:sans-serif;font-size:13;text-anchor:end;" transform="matrix(1 0 0 1 3036 1933)">Template v.3.0</text>
  <text style="stroke:none;fill:black;font-family:sans-serif;font-size:13;text-anchor:end;" transform="matrix(1 0 0 1 3036 1951)">Requires Xcode 13 or greater</text>
  <text id="descriptive-name" style="stroke:none;fill:black;font-family:sans-serif;font-size:13;text-anchor:end;" transform="matrix(1 0 0 1 3036 1969)">Generated from serivce.tires</text>
  <text style="stroke:none;fill:black;font-family:sans-serif;font-size:13;text-anchor:end;" transform="matrix(1 0 0 1 3036 1987)">Typeset at 100 points</text>
  <text style="stroke:none;fill:black;font-family:sans-serif;font-size:13;" transform="matrix(1 0 0 1 263 726)">Small</text>
  <text style="stroke:none;fill:black;font-family:sans-serif;font-size:13;" transform="matrix(1 0 0 1 263 1156)">Medium</text>
  <text style="stroke:none;fill:black;font-family:sans-serif;font-size:13;" transform="matrix(1 0 0 1 263 1586)">Large</text>
 </g>
 <g id="Guides">
  <g id="H-reference" style="fill:#27AAE1;stroke:none;" transform="matrix(1 0 0 1 339 696)">
   <path d="M0.993347 0L3.6377 0L29.3282-67.1326L30.0301-67.1326L30.0301-70.459L28.1227-70.459ZM11.6882-24.4797L46.9818-24.4797L46.2311-26.7288L12.4382-26.7288ZM55.1193 0L57.7637 0L30.6381-70.459L29.4327-70.459L29.4327-67.1326Z"/>
  </g>
  <line id="Baseline-S" style="fill:none;stroke:#27AAE1;opacity:1;stroke-width:0.5;" x1="263" x2="3036" y1="696" y2="696"/>
  <line id="Capline-S" style="fill:none;stroke:#27AAE1;opacity:1;stroke-width:0.5;" x1="263" x2="3036" y1="625.541" y2="625.541"/>
  <g id="H-reference" style="fill:#27AAE1;stroke:none;" transform="matrix(1 0 0 1 339 1126)">
   <path d="M0.993347 0L3.6377 0L29.3282-67.1326L30.0301-67.1326L30.0301-70.459L28.1227-70.459ZM11.6882-24.4797L46.9818-24.4797L46.2311-26.7288L12.4382-26.7288ZM55.1193 0L57.7637 0L30.6381-70.459L29.4327-70.459L29.4327-67.1326Z"/>
  </g>
  <line id="Baseline-M" style="fill:none;stroke:#27AAE1;opacity:1;stroke-width:0.5;" x1="263" x2="3036" y1="1126" y2="1126"/>
  <line id="Capline-M" style="fill:none;stroke:#27AAE1;opacity:1;stroke-width:0.5;" x1="263" x2="3036" y1="1055.54" y2="1055.54"/>
  <g id="H-reference" style="fill:#27AAE1;stroke:none;" transform="matrix(1 0 0 1 339 1556)">
   <path d="M0.993347 0L3.6377 0L29.3282-67.1326L30.0301-67.1326L30.0301-70.459L28.1227-70.459ZM11.6882-24.4797L46.9818-24.4797L46.2311-26.7288L12.4382-26.7288ZM55.1193 0L57.7637 0L30.6381-70.459L29.4327-70.459L29.4327-67.1326Z"/>
  </g>
  <line id="Baseline-L" style="fill:none;stroke:#27AAE1;opacity:1;stroke-width:0.5;" x1="263" x2="3036" y1="1556" y2="1556"/>
  <line id="Capline-L" style="fill:none;stroke:#27AAE1;opacity:1;stroke-width:0.5;" x1="263" x2="3036" y1="1485.54" y2="1485.54"/>
  <line id="left-margin-Regular-M" style="fill:none;stroke:#00AEEF;stroke-width:0.5;opacity:1.0;" x1="1389.57" x2="1389.57" y1="1030.78" y2="1150.12"/>
  <line id="right-margin-Regular-M" style="fill:none;stroke:#00AEEF;stroke-width:0.5;opacity:1.0;" x1="1510.12" x2="1510.12" y1="1030.78" y2="1150.12"/>
 </g>
 <g id="Symbols">
  <g id="Medium-M" transform="matrix(1 0 0 1 1686.28 1126)">
   <path d="M69.0323-79.0275C46.0289-85.1913 22.1727-71.4091 16.0088-48.4057C9.84495-25.4022 23.6161-1.54897 46.62 4.61502C69.6239 10.779 93.4873-2.98945 99.6513-25.9934C103.661-40.9578 99.2364-56.2897 89.316-66.8716C83.9861-72.5574 77.0723-76.8731 69.0323-79.0275L69.0323-79.0275ZM67.2636-72.4265C74.0284-70.6139 79.8455-66.9821 84.3304-62.198C92.688-53.2827 96.4285-40.3694 93.0504-27.7621C87.8593-8.38908 67.7618 3.20515 48.3888-1.98593C29.0157-7.177 17.4188-27.2644 22.6098-46.6369C27.8007-66.0095 47.891-77.6175 67.2636-72.4265L67.2636-72.4265ZM84.3975-30.0854C88.3293-44.7589 79.6214-59.8415 64.9479-63.7733C50.2744-67.7051 35.1918-58.9973 31.26-44.3237C27.3281-29.6502 36.036-14.5676 50.7095-10.6358C65.3831-6.70399 80.4657-15.4119 84.3975-30.0854L84.3975-30.0854ZM79.5705-31.3788C76.3531-19.3712 64.0105-12.2453 52.0029-15.4627C39.9953-18.6802 32.8694-31.0228 36.0869-43.0303C39.3044-55.0379 51.6469-62.1638 63.6545-58.9464C75.6621-55.7289 82.788-43.3864 79.5705-31.3788L79.5705-31.3788ZM77.4146-42.6068L74.6353-45.3851L70.8393-44.3679L69.8226-40.5726L72.6007-37.794L76.3967-38.8111L77.4146-42.6068ZM75.5919-42.1184C75.884-41.0285 75.2373-39.9084 74.1473-39.6163C73.0577-39.3244 71.9373-39.971 71.6452-41.0609C71.3532-42.1509 72.0002-43.2711 73.0898-43.563C74.1798-43.8551 75.2999-43.2084 75.5919-42.1184ZM45.2171-32.7L43.8161-35.8481L40.3896-36.2094L38.364-33.423L39.7635-30.2752L43.1901-29.9138L45.217-32.7003L45.2171-32.7ZM43.5718-32.8736C43.4682-31.8898 42.5864-31.1762 41.6025-31.2801C40.6187-31.3839 39.9055-32.2655 40.0093-33.2494C40.1128-34.2331 40.9947-34.9468 41.9785-34.8429C42.9624-34.7391 43.6757-33.8571 43.5718-32.8736ZM63.1137-56.9139L59.3181-55.8961L58.3009-52.1001L61.0794-49.3219L64.8748-50.3386L65.892-54.1346L63.1137-56.9139ZM62.6254-55.0912C63.7153-54.7991 64.362-53.6791 64.0699-52.5891C63.778-51.4995 62.6578-50.8525 61.5678-51.1445C60.4779-51.4366 59.8313-52.557 60.1233-53.6466C60.4153-54.7366 61.5354-55.3833 62.6254-55.0912ZM55.5933-24.0776L52.1664-24.4384L50.1402-21.6516L51.5405-18.5042L54.9664-18.1423L56.9926-20.9291L55.5929-24.0777L55.5933-24.0776ZM54.6202-22.7395C55.4204-22.158 55.5975-21.0375 55.0157-20.2374C54.4338-19.4373 53.3137-19.2604 52.5136-19.8423C51.7134-20.4238 51.5363-21.5443 52.1181-22.3444C52.7-23.1445 53.8204-23.3213 54.6202-22.7395ZM71.7724-22.7963L72.7888-26.5924L70.01-29.3712L66.2147-28.3541L65.1975-24.5588L67.9764-21.7799L71.7724-22.7963ZM70.4382-24.1306C69.6403-23.3327 68.3469-23.3327 67.549-24.1306C66.7513-24.9282 66.7511-26.2219 67.549-27.0198C68.3469-27.8177 69.6405-27.8174 70.4382-27.0198C71.2361-26.2219 71.2361-24.9285 70.4382-24.1306ZM47.0944-45.7271L49.1202-48.5144L47.7199-51.6626L44.294-52.0236L42.2677-49.2376L43.668-46.0894L47.0946-45.7273L47.0944-45.7271ZM46.4221-47.2388C45.5183-46.8366 44.4594-47.2434 44.0574-48.1474C43.6554-49.0514 44.0623-50.1098 44.9663-50.5118C45.87-50.914 46.9289-50.5072 47.3309-49.6032C47.7329-48.6992 47.3258-47.6405 46.4221-47.2388ZM67.4874-34.6184C66.058-29.2837 60.5746-26.1176 55.2396-27.5472C49.9046-28.9767 46.7389-34.46 48.1684-39.795C49.5979-45.1299 55.0812-48.2957 60.4162-46.8662C65.7512-45.4366 68.917-39.9533 67.4874-34.6184Z"/>
  </g>
  <g id="Regular-M" transform="matrix(1 0 0 1 1389.57 1126)">
   <path d="M69.0323-76.0875C46.0289-82.2513 22.1727-68.4691 16.0088-45.4657C9.84495-22.4622 23.6161 1.39103 46.62 7.55502C69.6239 13.719 93.4873-0.0494462 99.6513-23.0534C103.661-38.0178 99.2364-53.3497 89.316-63.9316C83.9861-69.6174 77.0723-73.9331 69.0323-76.0875L69.0323-76.0875ZM67.2636-69.4865C74.0284-67.6739 79.8455-64.0421 84.3304-59.258C92.688-50.3427 96.4285-37.4294 93.0504-24.8221C87.8593-5.44908 67.7618 6.14515 48.3888 0.954074C29.0157-4.237 17.4188-24.3244 22.6098-43.6969C27.8007-63.0695 47.891-74.6775 67.2636-69.4865L67.2636-69.4865ZM84.3975-27.1454C88.3293-41.8189 79.6214-56.9015 64.9479-60.8333C50.2744-64.7651 35.1918-56.0573 31.26-41.3837C27.3281-26.7102 36.036-11.6276 50.7095-7.69581C65.3831-3.76399 80.4657-12.4719 84.3975-27.1454L84.3975-27.1454ZM79.5705-28.4388C76.3531-16.4312 64.0105-9.30527 52.0029-12.5227C39.9953-15.7402 32.8694-28.0828 36.0869-40.0903C39.3044-52.0979 51.6469-59.2238 63.6545-56.0064C75.6621-52.7889 82.788-40.4464 79.5705-28.4388L79.5705-28.4388ZM77.4146-39.6668L74.6353-42.4451L70.8393-41.4279L69.8226-37.6326L72.6007-34.854L76.3967-35.8711L77.4146-39.6668ZM75.5919-39.1784C75.884-38.0885 75.2373-36.9684 74.1473-36.6763C73.0577-36.3844 71.9373-37.031 71.6452-38.1209C71.3532-39.2109 72.0002-40.3311 73.0898-40.623C74.1798-40.9151 75.2999-40.2684 75.5919-39.1784ZM45.2171-29.76L43.8161-32.9081L40.3896-33.2694L38.364-30.483L39.7635-27.3352L43.1901-26.9738L45.217-29.7603L45.2171-29.76ZM43.5718-29.9336C43.4682-28.9498 42.5864-28.2362 41.6025-28.3401C40.6187-28.4439 39.9055-29.3255 40.0093-30.3094C40.1128-31.2931 40.9947-32.0068 41.9785-31.9029C42.9624-31.7991 43.6757-30.9171 43.5718-29.9336ZM63.1137-53.9739L59.3181-52.9561L58.3009-49.1601L61.0794-46.3819L64.8748-47.3986L65.892-51.1946L63.1137-53.9739ZM62.6254-52.1512C63.7153-51.8591 64.362-50.7391 64.0699-49.6491C63.778-48.5595 62.6578-47.9125 61.5678-48.2045C60.4779-48.4966 59.8313-49.617 60.1233-50.7066C60.4153-51.7966 61.5354-52.4433 62.6254-52.1512ZM55.5933-21.1376L52.1664-21.4984L50.1402-18.7116L51.5405-15.5642L54.9664-15.2023L56.9926-17.9891L55.5929-21.1377L55.5933-21.1376ZM54.6202-19.7995C55.4204-19.218 55.5975-18.0975 55.0157-17.2974C54.4338-16.4973 53.3137-16.3204 52.5136-16.9023C51.7134-17.4838 51.5363-18.6043 52.1181-19.4044C52.7-20.2045 53.8204-20.3813 54.6202-19.7995ZM71.7724-19.8563L72.7888-23.6524L70.01-26.4312L66.2147-25.4141L65.1975-21.6188L67.9764-18.8399L71.7724-19.8563ZM70.4382-21.1906C69.6403-20.3927 68.3469-20.3927 67.549-21.1906C66.7513-21.9882 66.7511-23.2819 67.549-24.0798C68.3469-24.8777 69.6405-24.8774 70.4382-24.0798C71.2361-23.2819 71.2361-21.9885 70.4382-21.1906ZM47.0944-42.7871L49.1202-45.5744L47.7199-48.7226L44.294-49.0836L42.2677-46.2976L43.668-43.1494L47.0946-42.7873L47.0944-42.7871ZM46.4221-44.2988C45.5183-43.8966 44.4594-44.3034 44.0574-45.2074C43.6554-46.1114 44.0623-47.1698 44.9663-47.5718C45.87-47.974 46.9289-47.5672 47.3309-46.6632C47.7329-45.7592 47.3258-44.7005 46.4221-44.2988ZM67.4874-31.6784C66.058-26.3437 60.5746-23.1776 55.2396-24.6072C49.9046-26.0367 46.7389-31.52 48.1684-36.855C49.5979-42.1899 55.0812-45.3557 60.4162-43.9262C65.7512-42.4966 68.917-37.0133 67.4874-31.6784Z"/>
  </g>
 </g>
</svg>
