<?xml version="1.0" encoding="UTF-8"?>
<!--Generator: Apple Native CoreSVG 175-->
<!DOCTYPE svg
PUBLIC "-//W3C//DTD SVG 1.1//EN"
       "http://www.w3.org/Graphics/SVG/1.1/DTD/svg11.dtd">
<svg version="1.1" xmlns="http://www.w3.org/2000/svg" xmlns:xlink="http://www.w3.org/1999/xlink" width="3300" height="2200">
 <!--glyph: "", point size: 100.0, font version: "17.1d1e1", template writer version: "65.1"-->
 <g id="Notes">
  <rect height="2200" id="artboard" style="fill:white;opacity:1" width="3300" x="0" y="0"/>
  <line style="fill:none;stroke:black;opacity:1;stroke-width:0.5;" x1="263" x2="3036" y1="292" y2="292"/>
  <text style="stroke:none;fill:black;font-family:sans-serif;font-size:13;font-weight:bold;" transform="matrix(1 0 0 1 263 322)">Weight/Scale Variations</text>
  <text style="stroke:none;fill:black;font-family:sans-serif;font-size:13;text-anchor:middle;" transform="matrix(1 0 0 1 559.711 322)">Ultralight</text>
  <text style="stroke:none;fill:black;font-family:sans-serif;font-size:13;text-anchor:middle;" transform="matrix(1 0 0 1 856.422 322)">Thin</text>
  <text style="stroke:none;fill:black;font-family:sans-serif;font-size:13;text-anchor:middle;" transform="matrix(1 0 0 1 1153.13 322)">Light</text>
  <text style="stroke:none;fill:black;font-family:sans-serif;font-size:13;text-anchor:middle;" transform="matrix(1 0 0 1 1449.84 322)">Regular</text>
  <text style="stroke:none;fill:black;font-family:sans-serif;font-size:13;text-anchor:middle;" transform="matrix(1 0 0 1 1746.56 322)">Medium</text>
  <text style="stroke:none;fill:black;font-family:sans-serif;font-size:13;text-anchor:middle;" transform="matrix(1 0 0 1 2043.27 322)">Semibold</text>
  <text style="stroke:none;fill:black;font-family:sans-serif;font-size:13;text-anchor:middle;" transform="matrix(1 0 0 1 2339.98 322)">Bold</text>
  <text style="stroke:none;fill:black;font-family:sans-serif;font-size:13;text-anchor:middle;" transform="matrix(1 0 0 1 2636.69 322)">Heavy</text>
  <text style="stroke:none;fill:black;font-family:sans-serif;font-size:13;text-anchor:middle;" transform="matrix(1 0 0 1 2933.4 322)">Black</text>
  <line style="fill:none;stroke:black;opacity:1;stroke-width:0.5;" x1="263" x2="3036" y1="1903" y2="1903"/>
  <g transform="matrix(1 0 0 1 263 1933)">
   <path d="M9.24805 0.830078Q10.8691 0.830078 12.2949 0.214844Q13.7207-0.400391 14.8096-1.49414Q15.8984-2.58789 16.5186-4.01367Q17.1387-5.43945 17.1387-7.05078Q17.1387-8.66211 16.5186-10.0879Q15.8984-11.5137 14.8047-12.6074Q13.7109-13.7012 12.2852-14.3164Q10.8594-14.9316 9.23828-14.9316Q7.62695-14.9316 6.20117-14.3164Q4.77539-13.7012 3.69141-12.6074Q2.60742-11.5137 1.9873-10.0879Q1.36719-8.66211 1.36719-7.05078Q1.36719-5.43945 1.9873-4.01367Q2.60742-2.58789 3.69629-1.49414Q4.78516-0.400391 6.21094 0.214844Q7.63672 0.830078 9.24805 0.830078ZM9.24805-0.654297Q7.91992-0.654297 6.7627-1.14746Q5.60547-1.64062 4.73145-2.51953Q3.85742-3.39844 3.36426-4.56055Q2.87109-5.72266 2.87109-7.05078Q2.87109-8.37891 3.35938-9.54102Q3.84766-10.7031 4.72168-11.582Q5.5957-12.4609 6.75293-12.9541Q7.91016-13.4473 9.23828-13.4473Q10.5762-13.4473 11.7334-12.9541Q12.8906-12.4609 13.7695-11.582Q14.6484-10.7031 15.1465-9.54102Q15.6445-8.37891 15.6445-7.05078Q15.6445-5.72266 15.1514-4.56055Q14.6582-3.39844 13.7842-2.51953Q12.9102-1.64062 11.748-1.14746Q10.5859-0.654297 9.24805-0.654297ZM5.6543-7.05078Q5.6543-6.72852 5.85938-6.52832Q6.06445-6.32812 6.40625-6.32812L8.51562-6.32812L8.51562-4.20898Q8.51562-3.88672 8.71094-3.67676Q8.90625-3.4668 9.23828-3.4668Q9.56055-3.4668 9.77051-3.67676Q9.98047-3.88672 9.98047-4.20898L9.98047-6.32812L12.0898-6.32812Q12.4219-6.32812 12.627-6.52832Q12.832-6.72852 12.832-7.05078Q12.832-7.38281 12.627-7.58789Q12.4219-7.79297 12.0898-7.79297L9.98047-7.79297L9.98047-9.90234Q9.98047-10.2344 9.77051-10.4443Q9.56055-10.6543 9.23828-10.6543Q8.90625-10.6543 8.71094-10.4443Q8.51562-10.2344 8.51562-9.90234L8.51562-7.79297L6.40625-7.79297Q6.06445-7.79297 5.85938-7.58789Q5.6543-7.38281 5.6543-7.05078Z"/>
  </g>
  <g transform="matrix(1 0 0 1 281.867 1933)">
   <path d="M11.709 2.91016Q13.75 2.91016 15.5518 2.12891Q17.3535 1.34766 18.7305-0.0292969Q20.1074-1.40625 20.8887-3.20801Q21.6699-5.00977 21.6699-7.05078Q21.6699-9.0918 20.8887-10.8936Q20.1074-12.6953 18.7305-14.0723Q17.3535-15.4492 15.5469-16.2305Q13.7402-17.0117 11.6992-17.0117Q9.6582-17.0117 7.85645-16.2305Q6.05469-15.4492 4.68262-14.0723Q3.31055-12.6953 2.5293-10.8936Q1.74805-9.0918 1.74805-7.05078Q1.74805-5.00977 2.5293-3.20801Q3.31055-1.40625 4.6875-0.0292969Q6.06445 1.34766 7.86621 2.12891Q9.66797 2.91016 11.709 2.91016ZM11.709 1.25Q9.98047 1.25 8.47656 0.605469Q6.97266-0.0390625 5.83496-1.17676Q4.69727-2.31445 4.05762-3.81836Q3.41797-5.32227 3.41797-7.05078Q3.41797-8.7793 4.05762-10.2832Q4.69727-11.7871 5.83008-12.9297Q6.96289-14.0723 8.4668-14.7119Q9.9707-15.3516 11.6992-15.3516Q13.4277-15.3516 14.9316-14.7119Q16.4355-14.0723 17.5781-12.9297Q18.7207-11.7871 19.3652-10.2832Q20.0098-8.7793 20.0098-7.05078Q20.0098-5.32227 19.3701-3.81836Q18.7305-2.31445 17.5928-1.17676Q16.4551-0.0390625 14.9463 0.605469Q13.4375 1.25 11.709 1.25ZM7.17773-7.05078Q7.17773-6.69922 7.41211-6.47461Q7.64648-6.25 8.01758-6.25L10.8887-6.25L10.8887-3.36914Q10.8887-2.99805 11.1133-2.76855Q11.3379-2.53906 11.6895-2.53906Q12.0605-2.53906 12.29-2.76855Q12.5195-2.99805 12.5195-3.36914L12.5195-6.25L15.4004-6.25Q15.7715-6.25 16.001-6.47461Q16.2305-6.69922 16.2305-7.05078Q16.2305-7.42188 16.001-7.65137Q15.7715-7.88086 15.4004-7.88086L12.5195-7.88086L12.5195-10.752Q12.5195-11.1328 12.29-11.3623Q12.0605-11.5918 11.6895-11.5918Q11.3379-11.5918 11.1133-11.3574Q10.8887-11.123 10.8887-10.752L10.8887-7.88086L8.01758-7.88086Q7.63672-7.88086 7.40723-7.65137Q7.17773-7.42188 7.17773-7.05078Z"/>
  </g>
  <g transform="matrix(1 0 0 1 305.646 1933)">
   <path d="M14.9707 5.66406Q17.0605 5.66406 18.96 5.01465Q20.8594 4.36523 22.4512 3.19336Q24.043 2.02148 25.2197 0.429688Q26.3965-1.16211 27.0459-3.06641Q27.6953-4.9707 27.6953-7.05078Q27.6953-9.14062 27.0459-11.04Q26.3965-12.9395 25.2197-14.5312Q24.043-16.123 22.4512-17.2998Q20.8594-18.4766 18.9551-19.126Q17.0508-19.7754 14.9609-19.7754Q12.8711-19.7754 10.9717-19.126Q9.07227-18.4766 7.48535-17.2998Q5.89844-16.123 4.72168-14.5312Q3.54492-12.9395 2.90039-11.04Q2.25586-9.14062 2.25586-7.05078Q2.25586-4.9707 2.90527-3.06641Q3.55469-1.16211 4.72656 0.429688Q5.89844 2.02148 7.49023 3.19336Q9.08203 4.36523 10.9814 5.01465Q12.8809 5.66406 14.9707 5.66406ZM14.9707 3.84766Q13.1641 3.84766 11.5283 3.2959Q9.89258 2.74414 8.53516 1.74805Q7.17773 0.751953 6.17676-0.610352Q5.17578-1.97266 4.62891-3.6084Q4.08203-5.24414 4.08203-7.05078Q4.08203-8.86719 4.62891-10.5029Q5.17578-12.1387 6.17188-13.501Q7.16797-14.8633 8.52539-15.8594Q9.88281-16.8555 11.5186-17.4023Q13.1543-17.9492 14.9609-17.9492Q16.7773-17.9492 18.4131-17.4023Q20.0488-16.8555 21.4111-15.8594Q22.7734-14.8633 23.7695-13.501Q24.7656-12.1387 25.3174-10.5029Q25.8691-8.86719 25.8691-7.05078Q25.8789-5.24414 25.332-3.6084Q24.7852-1.97266 23.7842-0.610352Q22.7832 0.751953 21.4209 1.74805Q20.0586 2.74414 18.4229 3.2959Q16.7871 3.84766 14.9707 3.84766ZM9.19922-7.05078Q9.19922-6.66992 9.45801-6.4209Q9.7168-6.17188 10.1172-6.17188L14.0625-6.17188L14.0625-2.2168Q14.0625-1.81641 14.3115-1.55762Q14.5605-1.29883 14.9512-1.29883Q15.3516-1.29883 15.6104-1.55273Q15.8691-1.80664 15.8691-2.2168L15.8691-6.17188L19.8242-6.17188Q20.2246-6.17188 20.4785-6.4209Q20.7324-6.66992 20.7324-7.05078Q20.7324-7.46094 20.4785-7.71484Q20.2246-7.96875 19.8242-7.96875L15.8691-7.96875L15.8691-11.9141Q15.8691-12.3242 15.6104-12.583Q15.3516-12.8418 14.9512-12.8418Q14.5605-12.8418 14.3115-12.583Q14.0625-12.3242 14.0625-11.9141L14.0625-7.96875L10.1172-7.96875Q9.70703-7.96875 9.45312-7.71484Q9.19922-7.46094 9.19922-7.05078Z"/>
  </g>
  <text style="stroke:none;fill:black;font-family:sans-serif;font-size:13;font-weight:bold;" transform="matrix(1 0 0 1 263 1953)">Design Variations</text>
  <text style="stroke:none;fill:black;font-family:sans-serif;font-size:13;" transform="matrix(1 0 0 1 263 1971)">Symbols are supported in up to nine weights and three scales.</text>
  <text style="stroke:none;fill:black;font-family:sans-serif;font-size:13;" transform="matrix(1 0 0 1 263 1989)">For optimal layout with text and other symbols, vertically align</text>
  <text style="stroke:none;fill:black;font-family:sans-serif;font-size:13;" transform="matrix(1 0 0 1 263 2007)">symbols with the adjacent text.</text>
  <line style="fill:none;stroke:#00AEEF;stroke-width:0.5;opacity:1.0;" x1="776" x2="776" y1="1919" y2="1933"/>
  <g transform="matrix(1 0 0 1 776 1933)">
   <path d="M3.31055 0.15625Q3.70117 0.15625 3.91602-0.00976562Q4.13086-0.175781 4.26758-0.585938L5.52734-4.0332L11.2891-4.0332L12.5488-0.585938Q12.6855-0.175781 12.9004-0.00976562Q13.1152 0.15625 13.4961 0.15625Q13.8867 0.15625 14.1162-0.0585938Q14.3457-0.273438 14.3457-0.644531Q14.3457-0.869141 14.2383-1.17188L9.6582-13.3691Q9.48242-13.8184 9.17969-14.043Q8.87695-14.2676 8.4082-14.2676Q7.5-14.2676 7.17773-13.3789L2.59766-1.16211Q2.49023-0.859375 2.49023-0.634766Q2.49023-0.263672 2.70996-0.0537109Q2.92969 0.15625 3.31055 0.15625ZM6.00586-5.51758L8.37891-12.0898L8.42773-12.0898L10.8008-5.51758Z"/>
  </g>
  <line style="fill:none;stroke:#00AEEF;stroke-width:0.5;opacity:1.0;" x1="793.197" x2="793.197" y1="1919" y2="1933"/>
  <text style="stroke:none;fill:black;font-family:sans-serif;font-size:13;font-weight:bold;" transform="matrix(1 0 0 1 776 1953)">Margins</text>
  <text style="stroke:none;fill:black;font-family:sans-serif;font-size:13;" transform="matrix(1 0 0 1 776 1971)">Leading and trailing margins on the left and right side of each symbol</text>
  <text style="stroke:none;fill:black;font-family:sans-serif;font-size:13;" transform="matrix(1 0 0 1 776 1989)">can be adjusted by modifying the x-location of the margin guidelines.</text>
  <text style="stroke:none;fill:black;font-family:sans-serif;font-size:13;" transform="matrix(1 0 0 1 776 2007)">Modifications are automatically applied proportionally to all</text>
  <text style="stroke:none;fill:black;font-family:sans-serif;font-size:13;" transform="matrix(1 0 0 1 776 2025)">scales and weights.</text>
  <g transform="matrix(1 0 0 1 1289 1933)">
   <path d="M2.8418 1.86523L4.54102 3.57422Q5.18555 4.22852 5.90332 4.17969Q6.62109 4.13086 7.31445 3.35938L18.0078-8.42773L17.041-9.4043L6.42578 2.27539Q6.16211 2.57812 5.89355 2.61719Q5.625 2.65625 5.27344 2.30469L4.10156 1.14258Q3.75 0.791016 3.79395 0.522461Q3.83789 0.253906 4.14062-0.0195312L15.6152-10.8203L14.6387-11.7871L3.04688-0.898438Q2.30469-0.214844 2.25098 0.498047Q2.19727 1.21094 2.8418 1.86523ZM9.25781-16.3281Q8.94531-16.0254 8.90625-15.6348Q8.86719-15.2441 9.04297-14.9512Q9.21875-14.6777 9.55566-14.541Q9.89258-14.4043 10.3809-14.5215Q11.4746-14.7754 12.5977-14.7314Q13.7207-14.6875 14.7949-13.9844L14.209-12.5293Q13.9551-11.9043 14.0674-11.4404Q14.1797-10.9766 14.5801-10.5664L16.875-8.25195Q17.2363-7.88086 17.5781-7.82227Q17.9199-7.76367 18.3398-7.8418L19.4043-8.03711L20.0684-7.36328L20.0293-6.80664Q20-6.43555 20.1221-6.12305Q20.2441-5.81055 20.6055-5.44922L21.3672-4.70703Q21.7285-4.3457 22.1533-4.33105Q22.5781-4.31641 22.9297-4.66797L25.8398-7.58789Q26.1914-7.93945 26.1816-8.35449Q26.1719-8.76953 25.8105-9.13086L25.0391-9.89258Q24.6875-10.2539 24.3799-10.3857Q24.0723-10.5176 23.7109-10.4883L23.1348-10.4395L22.4902-11.0742L22.7344-12.1973Q22.832-12.6172 22.6953-12.9834Q22.5586-13.3496 22.1191-13.7891L19.9219-15.9766Q18.6719-17.2168 17.2607-17.8369Q15.8496-18.457 14.4189-18.4814Q12.9883-18.5059 11.665-17.959Q10.3418-17.4121 9.25781-16.3281ZM10.752-15.957Q11.6602-16.6211 12.7002-16.9043Q13.7402-17.1875 14.8047-17.085Q15.8691-16.9824 16.8701-16.5137Q17.8711-16.0449 18.7012-15.2051L21.1328-12.793Q21.3086-12.6172 21.3525-12.4512Q21.3965-12.2852 21.3379-12.0312L21.0156-10.5469L22.5195-9.0625L23.5059-9.12109Q23.6914-9.13086 23.7891-9.09668Q23.8867-9.0625 24.0332-8.91602L24.6094-8.33984L22.168-5.89844L21.5918-6.47461Q21.4453-6.62109 21.4062-6.71875Q21.3672-6.81641 21.377-7.01172L21.4453-7.98828L19.9512-9.47266L18.4277-9.21875Q18.1836-9.16992 18.042-9.2041Q17.9004-9.23828 17.7148-9.41406L15.7129-11.416Q15.5176-11.5918 15.4932-11.7529Q15.4688-11.9141 15.5859-12.1875L16.4648-14.2773Q15.293-15.3711 13.8281-15.791Q12.3633-16.2109 10.8398-15.7617Q10.7227-15.7324 10.6885-15.8057Q10.6543-15.8789 10.752-15.957Z"/>
  </g>
  <text style="stroke:none;fill:black;font-family:sans-serif;font-size:13;font-weight:bold;" transform="matrix(1 0 0 1 1289 1953)">Exporting</text>
  <text style="stroke:none;fill:black;font-family:sans-serif;font-size:13;" transform="matrix(1 0 0 1 1289 1971)">Symbols should be outlined when exporting to ensure the</text>
  <text style="stroke:none;fill:black;font-family:sans-serif;font-size:13;" transform="matrix(1 0 0 1 1289 1989)">design is preserved when submitting to Xcode.</text>
  <text id="template-version" style="stroke:none;fill:black;font-family:sans-serif;font-size:13;text-anchor:end;" transform="matrix(1 0 0 1 3036 1933)">Template v.3.0</text>
  <text style="stroke:none;fill:black;font-family:sans-serif;font-size:13;text-anchor:end;" transform="matrix(1 0 0 1 3036 1951)">Requires Xcode 13 or greater</text>
  <text id="descriptive-name" style="stroke:none;fill:black;font-family:sans-serif;font-size:13;text-anchor:end;" transform="matrix(1 0 0 1 3036 1969)">Generated from serivce.alignment</text>
  <text style="stroke:none;fill:black;font-family:sans-serif;font-size:13;text-anchor:end;" transform="matrix(1 0 0 1 3036 1987)">Typeset at 100 points</text>
  <text style="stroke:none;fill:black;font-family:sans-serif;font-size:13;" transform="matrix(1 0 0 1 263 726)">Small</text>
  <text style="stroke:none;fill:black;font-family:sans-serif;font-size:13;" transform="matrix(1 0 0 1 263 1156)">Medium</text>
  <text style="stroke:none;fill:black;font-family:sans-serif;font-size:13;" transform="matrix(1 0 0 1 263 1586)">Large</text>
 </g>
 <g id="Guides">
  <g id="H-reference" style="fill:#27AAE1;stroke:none;" transform="matrix(1 0 0 1 339 696)">
   <path d="M0.993347 0L3.6377 0L29.3282-67.1326L30.0301-67.1326L30.0301-70.459L28.1227-70.459ZM11.6882-24.4797L46.9818-24.4797L46.2311-26.7288L12.4382-26.7288ZM55.1193 0L57.7637 0L30.6381-70.459L29.4327-70.459L29.4327-67.1326Z"/>
  </g>
  <line id="Baseline-S" style="fill:none;stroke:#27AAE1;opacity:1;stroke-width:0.5;" x1="263" x2="3036" y1="696" y2="696"/>
  <line id="Capline-S" style="fill:none;stroke:#27AAE1;opacity:1;stroke-width:0.5;" x1="263" x2="3036" y1="625.541" y2="625.541"/>
  <g id="H-reference" style="fill:#27AAE1;stroke:none;" transform="matrix(1 0 0 1 339 1126)">
   <path d="M0.993347 0L3.6377 0L29.3282-67.1326L30.0301-67.1326L30.0301-70.459L28.1227-70.459ZM11.6882-24.4797L46.9818-24.4797L46.2311-26.7288L12.4382-26.7288ZM55.1193 0L57.7637 0L30.6381-70.459L29.4327-70.459L29.4327-67.1326Z"/>
  </g>
  <line id="Baseline-M" style="fill:none;stroke:#27AAE1;opacity:1;stroke-width:0.5;" x1="263" x2="3036" y1="1126" y2="1126"/>
  <line id="Capline-M" style="fill:none;stroke:#27AAE1;opacity:1;stroke-width:0.5;" x1="263" x2="3036" y1="1055.54" y2="1055.54"/>
  <g id="H-reference" style="fill:#27AAE1;stroke:none;" transform="matrix(1 0 0 1 339 1556)">
   <path d="M0.993347 0L3.6377 0L29.3282-67.1326L30.0301-67.1326L30.0301-70.459L28.1227-70.459ZM11.6882-24.4797L46.9818-24.4797L46.2311-26.7288L12.4382-26.7288ZM55.1193 0L57.7637 0L30.6381-70.459L29.4327-70.459L29.4327-67.1326Z"/>
  </g>
  <line id="Baseline-L" style="fill:none;stroke:#27AAE1;opacity:1;stroke-width:0.5;" x1="263" x2="3036" y1="1556" y2="1556"/>
  <line id="Capline-L" style="fill:none;stroke:#27AAE1;opacity:1;stroke-width:0.5;" x1="263" x2="3036" y1="1485.54" y2="1485.54"/>
  <line id="left-margin-Regular-M" style="fill:none;stroke:#00AEEF;stroke-width:0.5;opacity:1.0;" x1="1379.84" x2="1379.84" y1="1030.78" y2="1150.12"/>
  <line id="right-margin-Regular-M" style="fill:none;stroke:#00AEEF;stroke-width:0.5;opacity:1.0;" x1="1519.85" x2="1519.85" y1="1030.78" y2="1150.12"/>
 </g>
 <g id="Symbols">
  <g id="Medium-M" transform="matrix(1 0 0 1 1677.83 1126)">
   <path d="M70.4857-69.5678C55.4877-73.5865 39.9339-64.6003 35.9152-49.6023C31.8964-34.6044 40.8748-19.0527 55.8731-15.0338C70.8714-11.015 86.4303-19.9915 90.4491-34.9898C94.468-49.9881 85.4836-65.5491 70.4857-69.5678ZM79.5925-37.9022C77.1638-28.8384 67.8473-23.4596 58.7836-25.8883C49.7198-28.3169 44.341-37.6334 46.7696-46.6972C49.1983-55.761 58.5148-61.1398 67.5786-58.7111C76.6423-56.2825 82.0212-46.966 79.5925-37.9022ZM66.9923-56.5176L63.5869-55.6044L62.6744-52.1988L65.1672-49.7063L68.5723-50.6184L69.4849-54.0241L66.9923-56.5176ZM66.5541-54.8823C67.532-54.6203 68.1122-53.6154 67.8502-52.6375C67.5882-51.66 66.5833-51.0795 65.6054-51.3415C64.6275-51.6035 64.0474-52.6087 64.3093-53.5863C64.5714-54.5642 65.5763-55.1444 66.5541-54.8823ZM62.3588-34.3393L58.8522-34.7084L56.7789-31.8568L58.2118-28.6361L61.7174-28.2659L63.7907-31.1175L62.3585-34.3394L62.3588-34.3393ZM61.3631-32.97C62.182-32.375 62.3632-31.2284 61.7678-30.4097C61.1724-29.5909 60.0262-29.41 59.2075-30.0054C58.3887-30.6004 58.2074-31.747 58.8028-32.5657C59.3982-33.3845 60.5447-33.5654 61.3631-32.97ZM77.3144-46.1912L74.8209-48.6838L71.4152-47.7713L70.503-44.3661L72.9955-41.8733L76.4012-42.7858L77.3144-46.1912ZM75.6791-45.753C75.9411-44.7752 75.3609-43.7703 74.383-43.5082C73.4055-43.2463 72.4003-43.8264 72.1382-44.8043C71.8762-45.7822 72.4567-46.7872 73.4343-47.0491C74.4122-47.3111 75.4171-46.7309 75.6791-45.753ZM55.7905-39.1148L54.3569-42.3362L50.8506-42.7059L48.7779-39.8547L50.2101-36.6336L53.7163-36.2638L55.7905-39.1151L55.7905-39.1148ZM54.1069-39.2925C54.001-38.2858 53.0986-37.5556 52.0918-37.6619C51.0851-37.7681 50.3553-38.6703 50.4616-39.677C50.5675-40.6837 51.4699-41.4139 52.4766-41.3076C53.4834-41.2013 54.2133-40.2989 54.1069-39.2925ZM73.2595-31.9054L74.1714-35.3111L71.6783-37.8042L68.2732-36.8917L67.3606-33.4866L69.8538-30.9935L73.2595-31.9054ZM72.0624-33.1025C71.3465-32.3866 70.1862-32.3866 69.4703-33.1025C68.7547-33.8181 68.7545-34.9787 69.4703-35.6946C70.1862-36.4104 71.3468-36.4102 72.0624-35.6946C72.7783-34.9787 72.7783-33.8183 72.0624-33.1025ZM56.3692-47.0073L58.4421-49.8595L57.0092-53.0809L53.5036-53.4503L51.4301-50.5995L52.8631-47.3781L56.3694-47.0075L56.3692-47.0073ZM55.6812-48.5542C54.7564-48.1426 53.6729-48.559 53.2615-49.484C52.8502-50.409 53.2665-51.4921 54.1915-51.9034C55.1163-52.315 56.1999-51.8986 56.6112-50.9736C57.0226-50.0486 56.606-48.9653 55.6812-48.5542ZM69.7434-40.5424C68.7722-36.918 65.0467-34.7669 61.422-35.7381C57.7974-36.7094 55.6465-40.4348 56.6177-44.0595C57.589-47.6841 61.3144-49.835 64.9391-48.8638C68.5638-47.8925 70.7146-44.1671 69.7434-40.5424ZM25.2522-17.8885C26.0457-17.8885 26.7483-18.0468 27.358-18.3634C27.9696-18.6799 28.2745-19.0667 28.2745-19.5237L28.2745-65.1044C28.2745-65.562 27.9696-65.9445 27.358-66.2518C26.7483-66.5598 26.0457-66.7137 25.2522-66.7137C24.4577-66.7137 23.7635-66.5598 23.1679-66.2518C22.5723-65.9445 22.2749-65.562 22.2749-65.1044L22.2749-19.5237C22.2749-19.0667 22.5723-18.6799 23.1679-18.3634C23.7635-18.0468 24.4577-17.8885 25.2522-17.8885ZM101.066-17.8885C101.86-17.8885 102.562-18.0468 103.172-18.3634C103.784-18.6799 104.088-19.0667 104.088-19.5237L104.088-65.1044C104.088-65.562 103.784-65.9445 103.172-66.2518C102.562-66.5598 101.86-66.7137 101.066-66.7137C100.272-66.7137 99.5775-66.5598 98.9819-66.2518C98.3863-65.9445 98.0889-65.562 98.0889-65.1044L98.0889-19.5237C98.0889-19.0667 98.3863-18.6799 98.9819-18.3634C99.5775-18.0468 100.272-17.8885 101.066-17.8885Z"/>
  </g>
  <g id="Regular-M" transform="matrix(1 0 0 1 1379.84 1126)">
   <path d="M71.7735-69.5711C56.7755-73.5899 41.2217-64.6036 37.2029-49.6056C33.1842-34.6076 42.1626-19.0559 57.1609-15.0371C72.1592-11.0182 87.7182-19.9947 91.737-34.9931C95.7558-49.9914 86.7715-65.5524 71.7735-69.5711ZM80.8803-37.9055C78.4517-28.8417 69.1351-23.4628 60.0714-25.8915C51.0076-28.3202 45.6287-37.6367 48.0574-46.7005C50.4861-55.7643 59.8026-61.1431 68.8664-58.7144C77.9302-56.2858 83.309-46.9692 80.8803-37.9055ZM68.2801-56.5209L64.8747-55.6078L63.9622-52.2021L66.455-49.7095L69.8601-50.6217L70.7727-54.0274L68.2801-56.5209ZM67.842-54.8856C68.8199-54.6236 69.4-53.6187 69.138-52.6408C68.8761-51.6633 67.8711-51.0828 66.8932-51.3448C65.9153-51.6068 65.3352-52.612 65.5971-53.5896C65.8592-54.5675 66.8641-55.1477 67.842-54.8856ZM63.6466-34.3425L60.14-34.7117L58.0667-31.86L59.4996-28.6394L63.0052-28.2691L65.0785-31.1207L63.6463-34.3426L63.6466-34.3425ZM62.6509-32.9733C63.4698-32.3782 63.651-31.2316 63.0556-30.4129C62.4602-29.5942 61.314-29.4132 60.4953-30.0086C59.6765-30.6037 59.4952-31.7503 60.0906-32.569C60.686-33.3877 61.8325-33.5686 62.6509-32.9733ZM78.6022-46.1945L76.1087-48.6871L72.703-47.7746L71.7908-44.3694L74.2833-41.8766L77.689-42.7891L78.6022-46.1945ZM76.967-45.7563C77.229-44.7784 76.6488-43.7735 75.6709-43.5115C74.6933-43.2496 73.6881-43.8297 73.4261-44.8076C73.1641-45.7855 73.7446-46.7905 74.7221-47.0524C75.7-47.3144 76.7049-46.7342 76.967-45.7563ZM57.0783-39.1181L55.6447-42.3394L52.1384-42.7092L50.0657-39.8579L51.4978-36.6369L55.0041-36.2671L57.0783-39.1184L57.0783-39.1181ZM55.3947-39.2957C55.2887-38.2891 54.3864-37.5588 53.3796-37.6651C52.3729-37.7714 51.6431-38.6735 51.7493-39.6803C51.8553-40.6869 52.7577-41.4171 53.7644-41.3109C54.7711-41.2046 55.501-40.3022 55.3947-39.2957ZM74.5473-31.9086L75.4592-35.3144L72.9661-37.8075L69.5611-36.8949L68.6485-33.4899L71.1416-30.9967L74.5473-31.9086ZM73.3502-33.1057C72.6344-32.3899 71.474-32.3899 70.7581-33.1057C70.0425-33.8214 70.0423-34.982 70.7581-35.6978C71.474-36.4137 72.6346-36.4134 73.3502-35.6978C74.0661-34.9819 74.0661-33.8216 73.3502-33.1057ZM57.657-47.0106L59.7299-49.8628L58.297-53.0842L54.7914-53.4536L52.7179-50.6028L54.1508-47.3814L57.6572-47.0108L57.657-47.0106ZM56.969-48.5575C56.0442-48.1459 54.9607-48.5622 54.5493-49.4872C54.138-50.4122 54.5543-51.4953 55.4793-51.9067C56.4041-52.3183 57.4877-51.9019 57.899-50.9769C58.3104-50.0519 57.8938-48.9686 56.969-48.5575ZM71.0312-40.5457C70.06-36.9212 66.3345-34.7701 62.7098-35.7414C59.0852-36.7126 56.9343-40.4381 57.9055-44.0627C58.8768-47.6874 62.6022-49.8383 66.2269-48.867C69.8516-47.8958 72.0024-44.1704 71.0312-40.5457ZM25.2631-17.8919C26.0595-17.8919 26.7647-18.0502 27.3766-18.3667C27.9905-18.6833 28.2964-19.0701 28.2964-19.5271L28.2964-65.1076C28.2964-65.5651 27.9905-65.9476 27.3766-66.255C26.7647-66.5629 26.0595-66.7169 25.2631-66.7169C24.4657-66.7169 23.769-66.5629 23.1712-66.255C22.5733-65.9476 22.2749-65.5651 22.2749-65.1076L22.2749-19.5271C22.2749-19.0701 22.5733-18.6833 23.1712-18.3667C23.769-18.0502 24.4657-17.8919 25.2631-17.8919ZM103.631-17.8919C104.424-17.8919 105.126-18.0502 105.736-18.3667C106.347-18.6833 106.652-19.0701 106.652-19.5271L106.652-65.1076C106.652-65.5651 106.347-65.9476 105.736-66.255C105.126-66.5629 104.424-66.7169 103.631-66.7169C102.837-66.7169 102.143-66.5629 101.548-66.255C100.952-65.9476 100.655-65.5651 100.655-65.1076L100.655-19.5271C100.655-19.0701 100.952-18.6833 101.548-18.3667C102.143-18.0502 102.837-17.8919 103.631-17.8919Z"/>
  </g>
 </g>
</svg>
