<?xml version="1.0" encoding="UTF-8" standalone="no"?>
<!DOCTYPE svg PUBLIC "-//W3C//DTD SVG 1.1//EN" "http://www.w3.org/Graphics/SVG/1.1/DTD/svg11.dtd">
<svg width="100%" height="100%" viewBox="0 0 3300 2200" version="1.1" xmlns="http://www.w3.org/2000/svg" xmlns:xlink="http://www.w3.org/1999/xlink" xml:space="preserve" xmlns:serif="http://www.serif.com/" style="fill-rule:evenodd;clip-rule:evenodd;">
    <g id="Notes">
        <rect id="artboard" x="0" y="0" width="3300" height="2200" style="fill:white;"/>
        <path d="M263,292L3036,292" style="fill:none;fill-rule:nonzero;stroke:black;stroke-width:0.5px;"/>
        <g transform="matrix(1,0,0,1,263,322)">
            <text x="0px" y="0px" style="font-family:'LucidaGrande-Bold', 'Lucida Grande', sans-serif;font-weight:600;font-size:13px;">Weight/Scale Variations</text>
        </g>
        <g transform="matrix(1,0,0,1,559.711,322)">
            <text x="-29.339px" y="0px" style="font-family:'LucidaGrande', 'Lucida Grande', sans-serif;font-weight:500;font-size:13px;">Ultralight</text>
        </g>
        <g transform="matrix(1,0,0,1,856.422,322)">
            <text x="-14.057px" y="0px" style="font-family:'LucidaGrande', 'Lucida Grande', sans-serif;font-weight:500;font-size:13px;">Thin</text>
        </g>
        <g transform="matrix(1,0,0,1,1153.13,322)">
            <text x="-15.863px" y="0px" style="font-family:'LucidaGrande', 'Lucida Grande', sans-serif;font-weight:500;font-size:13px;">Light</text>
        </g>
        <g transform="matrix(1,0,0,1,1449.84,322)">
            <text x="-23.947px" y="0px" style="font-family:'LucidaGrande', 'Lucida Grande', sans-serif;font-weight:500;font-size:13px;">Regular</text>
        </g>
        <g transform="matrix(1,0,0,1,1746.56,322)">
            <text x="-25.292px" y="0px" style="font-family:'LucidaGrande', 'Lucida Grande', sans-serif;font-weight:500;font-size:13px;">Medium</text>
        </g>
        <g transform="matrix(1,0,0,1,2043.27,322)">
            <text x="-29.123px" y="0px" style="font-family:'LucidaGrande', 'Lucida Grande', sans-serif;font-weight:500;font-size:13px;">Semibold</text>
        </g>
        <g transform="matrix(1,0,0,1,2339.98,322)">
            <text x="-13.701px" y="0px" style="font-family:'LucidaGrande', 'Lucida Grande', sans-serif;font-weight:500;font-size:13px;">Bold</text>
        </g>
        <g transform="matrix(1,0,0,1,2636.69,322)">
            <text x="-18.748px" y="0px" style="font-family:'LucidaGrande', 'Lucida Grande', sans-serif;font-weight:500;font-size:13px;">Heavy</text>
        </g>
        <g transform="matrix(1,0,0,1,2933.4,322)">
            <text x="-16.336px" y="0px" style="font-family:'LucidaGrande', 'Lucida Grande', sans-serif;font-weight:500;font-size:13px;">Black</text>
        </g>
        <path d="M263,1903L3036,1903" style="fill:none;fill-rule:nonzero;stroke:black;stroke-width:0.5px;"/>
        <g transform="matrix(1,0,0,1,263,1933)">
            <path d="M9.248,0.83C10.329,0.83 11.344,0.625 12.295,0.215C13.245,-0.195 14.084,-0.765 14.81,-1.494C15.535,-2.223 16.105,-3.063 16.519,-4.014C16.932,-4.964 17.139,-5.977 17.139,-7.051C17.139,-8.125 16.932,-9.137 16.519,-10.088C16.105,-11.038 15.534,-11.878 14.805,-12.607C14.076,-13.337 13.236,-13.906 12.285,-14.316C11.335,-14.727 10.319,-14.932 9.238,-14.932C8.164,-14.932 7.152,-14.727 6.201,-14.316C5.251,-13.906 4.414,-13.337 3.691,-12.607C2.969,-11.878 2.401,-11.038 1.987,-10.088C1.574,-9.137 1.367,-8.125 1.367,-7.051C1.367,-5.977 1.574,-4.964 1.987,-4.014C2.401,-3.063 2.97,-2.223 3.696,-1.494C4.422,-0.765 5.26,-0.195 6.211,0.215C7.161,0.625 8.174,0.83 9.248,0.83ZM9.248,-0.654C8.363,-0.654 7.534,-0.819 6.763,-1.147C5.991,-1.476 5.314,-1.934 4.731,-2.52C4.149,-3.105 3.693,-3.786 3.364,-4.561C3.035,-5.335 2.871,-6.165 2.871,-7.051C2.871,-7.936 3.034,-8.766 3.359,-9.541C3.685,-10.316 4.139,-10.996 4.722,-11.582C5.304,-12.168 5.981,-12.625 6.753,-12.954C7.524,-13.283 8.353,-13.447 9.238,-13.447C10.13,-13.447 10.962,-13.283 11.733,-12.954C12.505,-12.625 13.184,-12.168 13.77,-11.582C14.355,-10.996 14.814,-10.316 15.147,-9.541C15.479,-8.766 15.645,-7.936 15.645,-7.051C15.645,-6.165 15.48,-5.335 15.151,-4.561C14.823,-3.786 14.367,-3.105 13.784,-2.52C13.202,-1.934 12.523,-1.476 11.748,-1.147C10.973,-0.819 10.14,-0.654 9.248,-0.654ZM5.654,-7.051C5.654,-6.836 5.723,-6.662 5.859,-6.528C5.996,-6.395 6.178,-6.328 6.406,-6.328L8.516,-6.328L8.516,-4.209C8.516,-3.994 8.581,-3.817 8.711,-3.677C8.841,-3.537 9.017,-3.467 9.238,-3.467C9.453,-3.467 9.631,-3.537 9.771,-3.677C9.91,-3.817 9.98,-3.994 9.98,-4.209L9.98,-6.328L12.09,-6.328C12.311,-6.328 12.49,-6.395 12.627,-6.528C12.764,-6.662 12.832,-6.836 12.832,-7.051C12.832,-7.272 12.764,-7.451 12.627,-7.588C12.49,-7.725 12.311,-7.793 12.09,-7.793L9.98,-7.793L9.98,-9.902C9.98,-10.124 9.91,-10.304 9.771,-10.444C9.631,-10.584 9.453,-10.654 9.238,-10.654C9.017,-10.654 8.841,-10.584 8.711,-10.444C8.581,-10.304 8.516,-10.124 8.516,-9.902L8.516,-7.793L6.406,-7.793C6.178,-7.793 5.996,-7.725 5.859,-7.588C5.723,-7.451 5.654,-7.272 5.654,-7.051Z" style="fill-rule:nonzero;"/>
        </g>
        <g transform="matrix(1,0,0,1,281.867,1933)">
            <path d="M11.709,2.91C13.07,2.91 14.351,2.65 15.552,2.129C16.753,1.608 17.813,0.889 18.731,-0.029C19.648,-0.947 20.368,-2.007 20.889,-3.208C21.409,-4.409 21.67,-5.69 21.67,-7.051C21.67,-8.411 21.409,-9.692 20.889,-10.894C20.368,-12.095 19.648,-13.154 18.731,-14.072C17.813,-14.99 16.751,-15.71 15.547,-16.23C14.342,-16.751 13.06,-17.012 11.699,-17.012C10.339,-17.012 9.058,-16.751 7.856,-16.23C6.655,-15.71 5.597,-14.99 4.683,-14.072C3.768,-13.154 3.05,-12.095 2.529,-10.894C2.008,-9.692 1.748,-8.411 1.748,-7.051C1.748,-5.69 2.008,-4.409 2.529,-3.208C3.05,-2.007 3.77,-0.947 4.688,-0.029C5.605,0.889 6.665,1.608 7.866,2.129C9.067,2.65 10.348,2.91 11.709,2.91ZM11.709,1.25C10.557,1.25 9.479,1.035 8.477,0.605C7.474,0.176 6.593,-0.418 5.835,-1.177C5.076,-1.935 4.484,-2.816 4.058,-3.818C3.631,-4.821 3.418,-5.898 3.418,-7.051C3.418,-8.203 3.631,-9.281 4.058,-10.283C4.484,-11.286 5.075,-12.168 5.83,-12.93C6.585,-13.691 7.464,-14.286 8.467,-14.712C9.469,-15.138 10.547,-15.352 11.699,-15.352C12.852,-15.352 13.929,-15.138 14.932,-14.712C15.934,-14.286 16.816,-13.691 17.578,-12.93C18.34,-12.168 18.936,-11.286 19.365,-10.283C19.795,-9.281 20.01,-8.203 20.01,-7.051C20.01,-5.898 19.797,-4.821 19.37,-3.818C18.944,-2.816 18.351,-1.935 17.593,-1.177C16.834,-0.418 15.952,0.176 14.946,0.605C13.94,1.035 12.861,1.25 11.709,1.25ZM7.178,-7.051C7.178,-6.816 7.256,-6.624 7.412,-6.475C7.568,-6.325 7.77,-6.25 8.018,-6.25L10.889,-6.25L10.889,-3.369C10.889,-3.122 10.964,-2.922 11.113,-2.769C11.263,-2.616 11.455,-2.539 11.69,-2.539C11.937,-2.539 12.137,-2.616 12.29,-2.769C12.443,-2.922 12.52,-3.122 12.52,-3.369L12.52,-6.25L15.4,-6.25C15.648,-6.25 15.848,-6.325 16.001,-6.475C16.154,-6.624 16.23,-6.816 16.23,-7.051C16.23,-7.298 16.154,-7.498 16.001,-7.651C15.848,-7.804 15.648,-7.881 15.4,-7.881L12.52,-7.881L12.52,-10.752C12.52,-11.006 12.443,-11.209 12.29,-11.362C12.137,-11.515 11.937,-11.592 11.69,-11.592C11.455,-11.592 11.263,-11.514 11.113,-11.357C10.964,-11.201 10.889,-10.999 10.889,-10.752L10.889,-7.881L8.018,-7.881C7.764,-7.881 7.56,-7.804 7.407,-7.651C7.254,-7.498 7.178,-7.298 7.178,-7.051Z" style="fill-rule:nonzero;"/>
        </g>
        <g transform="matrix(1,0,0,1,305.646,1933)">
            <path d="M14.971,5.664C16.364,5.664 17.694,5.448 18.96,5.015C20.226,4.582 21.39,3.975 22.451,3.193C23.512,2.412 24.435,1.491 25.22,0.43C26.004,-0.632 26.613,-1.797 27.046,-3.066C27.479,-4.336 27.695,-5.664 27.695,-7.051C27.695,-8.444 27.479,-9.774 27.046,-11.04C26.613,-12.306 26.004,-13.47 25.22,-14.531C24.435,-15.592 23.512,-16.515 22.451,-17.3C21.39,-18.084 20.225,-18.693 18.955,-19.126C17.686,-19.559 16.354,-19.775 14.961,-19.775C13.568,-19.775 12.238,-19.559 10.972,-19.126C9.705,-18.693 8.543,-18.084 7.485,-17.3C6.427,-16.515 5.506,-15.592 4.722,-14.531C3.937,-13.47 3.33,-12.306 2.9,-11.04C2.471,-9.774 2.256,-8.444 2.256,-7.051C2.256,-5.664 2.472,-4.336 2.905,-3.066C3.338,-1.797 3.945,-0.632 4.727,0.43C5.508,1.491 6.429,2.412 7.49,3.193C8.551,3.975 9.715,4.582 10.981,5.015C12.248,5.448 13.578,5.664 14.971,5.664ZM14.971,3.848C13.766,3.848 12.619,3.664 11.528,3.296C10.438,2.928 9.44,2.412 8.535,1.748C7.63,1.084 6.844,0.298 6.177,-0.61C5.509,-1.519 4.993,-2.518 4.629,-3.608C4.264,-4.699 4.082,-5.846 4.082,-7.051C4.082,-8.262 4.264,-9.412 4.629,-10.503C4.993,-11.593 5.508,-12.593 6.172,-13.501C6.836,-14.409 7.62,-15.195 8.525,-15.859C9.43,-16.523 10.428,-17.038 11.519,-17.402C12.609,-17.767 13.756,-17.949 14.961,-17.949C16.172,-17.949 17.323,-17.767 18.413,-17.402C19.504,-17.038 20.503,-16.523 21.411,-15.859C22.319,-15.195 23.105,-14.409 23.77,-13.501C24.434,-12.593 24.95,-11.593 25.317,-10.503C25.685,-9.412 25.869,-8.262 25.869,-7.051C25.876,-5.846 25.697,-4.699 25.332,-3.608C24.967,-2.518 24.452,-1.519 23.784,-0.61C23.117,0.298 22.329,1.084 21.421,1.748C20.513,2.412 19.513,2.928 18.423,3.296C17.332,3.664 16.182,3.848 14.971,3.848ZM9.199,-7.051C9.199,-6.797 9.285,-6.587 9.458,-6.421C9.631,-6.255 9.85,-6.172 10.117,-6.172L14.063,-6.172L14.063,-2.217C14.063,-1.95 14.146,-1.73 14.312,-1.558C14.477,-1.385 14.691,-1.299 14.951,-1.299C15.218,-1.299 15.438,-1.383 15.61,-1.553C15.783,-1.722 15.869,-1.943 15.869,-2.217L15.869,-6.172L19.824,-6.172C20.091,-6.172 20.309,-6.255 20.479,-6.421C20.648,-6.587 20.732,-6.797 20.732,-7.051C20.732,-7.324 20.648,-7.546 20.479,-7.715C20.309,-7.884 20.091,-7.969 19.824,-7.969L15.869,-7.969L15.869,-11.914C15.869,-12.188 15.783,-12.41 15.61,-12.583C15.438,-12.756 15.218,-12.842 14.951,-12.842C14.691,-12.842 14.477,-12.756 14.312,-12.583C14.146,-12.41 14.063,-12.188 14.063,-11.914L14.063,-7.969L10.117,-7.969C9.844,-7.969 9.622,-7.884 9.453,-7.715C9.284,-7.546 9.199,-7.324 9.199,-7.051Z" style="fill-rule:nonzero;"/>
        </g>
        <g transform="matrix(1,0,0,1,263,1953)">
            <text x="0px" y="0px" style="font-family:'LucidaGrande-Bold', 'Lucida Grande', sans-serif;font-weight:600;font-size:13px;">Design Variations</text>
        </g>
        <g transform="matrix(1,0,0,1,263,1971)">
            <text x="0px" y="0px" style="font-family:'LucidaGrande', 'Lucida Grande', sans-serif;font-weight:500;font-size:13px;">Symbols are supported in up to nine weights and three scales.</text>
        </g>
        <g transform="matrix(1,0,0,1,263,1989)">
            <text x="0px" y="0px" style="font-family:'LucidaGrande', 'Lucida Grande', sans-serif;font-weight:500;font-size:13px;">For optimal layout with text and other symbols, vertically align</text>
        </g>
        <g transform="matrix(1,0,0,1,263,2007)">
            <text x="0px" y="0px" style="font-family:'LucidaGrande', 'Lucida Grande', sans-serif;font-weight:500;font-size:13px;">symbols with the adjacent text.</text>
        </g>
        <path d="M776,1919L776,1933" style="fill:none;fill-rule:nonzero;stroke:rgb(0,174,239);stroke-width:0.5px;"/>
        <g transform="matrix(1,0,0,1,776,1933)">
            <path d="M3.311,0.156C3.571,0.156 3.773,0.101 3.916,-0.01C4.059,-0.12 4.176,-0.313 4.268,-0.586L5.527,-4.033L11.289,-4.033L12.549,-0.586C12.64,-0.313 12.757,-0.12 12.9,-0.01C13.044,0.101 13.242,0.156 13.496,0.156C13.756,0.156 13.963,0.085 14.116,-0.059C14.269,-0.202 14.346,-0.397 14.346,-0.645C14.346,-0.794 14.31,-0.97 14.238,-1.172L9.658,-13.369C9.541,-13.669 9.382,-13.893 9.18,-14.043C8.978,-14.193 8.721,-14.268 8.408,-14.268C7.803,-14.268 7.393,-13.971 7.178,-13.379L2.598,-1.162C2.526,-0.96 2.49,-0.785 2.49,-0.635C2.49,-0.387 2.563,-0.194 2.71,-0.054C2.856,0.086 3.057,0.156 3.311,0.156ZM6.006,-5.518L8.379,-12.09L8.428,-12.09L10.801,-5.518L6.006,-5.518Z" style="fill-rule:nonzero;"/>
        </g>
        <path d="M793.197,1919L793.197,1933" style="fill:none;fill-rule:nonzero;stroke:rgb(0,174,239);stroke-width:0.5px;"/>
        <g transform="matrix(1,0,0,1,776,1953)">
            <text x="0px" y="0px" style="font-family:'LucidaGrande-Bold', 'Lucida Grande', sans-serif;font-weight:600;font-size:13px;">Margins</text>
        </g>
        <g transform="matrix(1,0,0,1,776,1971)">
            <text x="0px" y="0px" style="font-family:'LucidaGrande', 'Lucida Grande', sans-serif;font-weight:500;font-size:13px;">Leading and trailing margins on the left and right side of each symbol</text>
        </g>
        <g transform="matrix(1,0,0,1,776,1989)">
            <text x="0px" y="0px" style="font-family:'LucidaGrande', 'Lucida Grande', sans-serif;font-weight:500;font-size:13px;">can be adjusted by modifying the x-location of the margin guidelines.</text>
        </g>
        <g transform="matrix(1,0,0,1,776,2007)">
            <text x="0px" y="0px" style="font-family:'LucidaGrande', 'Lucida Grande', sans-serif;font-weight:500;font-size:13px;">Modiﬁcations are automatically applied proportionally to all</text>
        </g>
        <g transform="matrix(1,0,0,1,776,2025)">
            <text x="0px" y="0px" style="font-family:'LucidaGrande', 'Lucida Grande', sans-serif;font-weight:500;font-size:13px;">scales and weights.</text>
        </g>
        <g transform="matrix(1,0,0,1,1289,1933)">
            <path d="M2.842,1.865L4.541,3.574C4.971,4.01 5.425,4.212 5.903,4.18C6.382,4.147 6.852,3.874 7.314,3.359L18.008,-8.428L17.041,-9.404L6.426,2.275C6.25,2.477 6.073,2.591 5.894,2.617C5.715,2.643 5.508,2.539 5.273,2.305L4.102,1.143C3.867,0.908 3.765,0.701 3.794,0.522C3.823,0.343 3.939,0.163 4.141,-0.02L15.615,-10.82L14.639,-11.787L3.047,-0.898C2.552,-0.443 2.287,0.023 2.251,0.498C2.215,0.973 2.412,1.429 2.842,1.865ZM9.258,-16.328C9.049,-16.126 8.932,-15.895 8.906,-15.635C8.88,-15.374 8.926,-15.146 9.043,-14.951C9.16,-14.769 9.331,-14.632 9.556,-14.541C9.78,-14.45 10.055,-14.443 10.381,-14.522C11.11,-14.691 11.849,-14.761 12.598,-14.731C13.346,-14.702 14.079,-14.453 14.795,-13.984L14.209,-12.529C14.04,-12.113 13.993,-11.75 14.067,-11.44C14.142,-11.131 14.313,-10.84 14.58,-10.566L16.875,-8.252C17.116,-8.005 17.35,-7.861 17.578,-7.822C17.806,-7.783 18.06,-7.79 18.34,-7.842L19.404,-8.037L20.068,-7.363L20.029,-6.807C20.01,-6.559 20.041,-6.331 20.122,-6.123C20.203,-5.915 20.365,-5.69 20.606,-5.449L21.367,-4.707C21.608,-4.466 21.87,-4.341 22.153,-4.331C22.437,-4.321 22.695,-4.434 22.93,-4.668L25.84,-7.588C26.074,-7.822 26.188,-8.078 26.182,-8.354C26.175,-8.631 26.051,-8.89 25.811,-9.131L25.039,-9.893C24.805,-10.133 24.585,-10.298 24.38,-10.386C24.175,-10.474 23.952,-10.508 23.711,-10.488L23.135,-10.44L22.49,-11.074L22.734,-12.197C22.799,-12.477 22.786,-12.739 22.695,-12.983C22.604,-13.228 22.412,-13.496 22.119,-13.789L19.922,-15.977C19.089,-16.803 18.202,-17.424 17.261,-17.837C16.32,-18.25 15.373,-18.465 14.419,-18.481C13.465,-18.498 12.547,-18.324 11.665,-17.959C10.783,-17.594 9.98,-17.051 9.258,-16.328ZM10.752,-15.957C11.357,-16.4 12.007,-16.716 12.7,-16.904C13.394,-17.093 14.095,-17.153 14.805,-17.085C15.514,-17.017 16.203,-16.826 16.87,-16.514C17.537,-16.201 18.148,-15.765 18.701,-15.205L21.133,-12.793C21.25,-12.676 21.323,-12.562 21.353,-12.451C21.382,-12.341 21.377,-12.201 21.338,-12.031L21.016,-10.547L22.52,-9.063L23.506,-9.121C23.63,-9.128 23.724,-9.119 23.789,-9.097C23.854,-9.074 23.936,-9.014 24.033,-8.916L24.609,-8.34L22.168,-5.898L21.592,-6.475C21.494,-6.572 21.432,-6.654 21.406,-6.719C21.38,-6.784 21.37,-6.882 21.377,-7.012L21.445,-7.988L19.951,-9.473L18.428,-9.219C18.265,-9.186 18.136,-9.181 18.042,-9.204C17.948,-9.227 17.839,-9.297 17.715,-9.414L15.713,-11.416C15.583,-11.533 15.509,-11.646 15.493,-11.753C15.477,-11.86 15.508,-12.005 15.586,-12.188L16.465,-14.277C15.684,-15.007 14.805,-15.511 13.828,-15.791C12.852,-16.071 11.855,-16.061 10.84,-15.762C10.762,-15.742 10.711,-15.757 10.689,-15.806C10.666,-15.855 10.687,-15.905 10.752,-15.957Z" style="fill-rule:nonzero;"/>
        </g>
        <g transform="matrix(1,0,0,1,1289,1953)">
            <text x="0px" y="0px" style="font-family:'LucidaGrande-Bold', 'Lucida Grande', sans-serif;font-weight:600;font-size:13px;">Exporting</text>
        </g>
        <g transform="matrix(1,0,0,1,1289,1971)">
            <text x="0px" y="0px" style="font-family:'LucidaGrande', 'Lucida Grande', sans-serif;font-weight:500;font-size:13px;">Symbols should be outlined when exporting to ensure the</text>
        </g>
        <g transform="matrix(1,0,0,1,1289,1989)">
            <text x="0px" y="0px" style="font-family:'LucidaGrande', 'Lucida Grande', sans-serif;font-weight:500;font-size:13px;">design is preserved when submitting to Xcode.</text>
        </g>
        <g id="template-version" transform="matrix(1,0,0,1,3036,1933)">
            <text x="-94.333px" y="0px" style="font-family:'LucidaGrande', 'Lucida Grande', sans-serif;font-weight:500;font-size:13px;">Template v.3.0</text>
        </g>
        <g transform="matrix(1,0,0,1,3036,1951)">
            <text x="-184.336px" y="0px" style="font-family:'LucidaGrande', 'Lucida Grande', sans-serif;font-weight:500;font-size:13px;">Requires Xcode 13 or greater</text>
        </g>
        <g id="descriptive-name" transform="matrix(1,0,0,1,3036,1969)">
            <text x="-201.69px" y="0px" style="font-family:'LucidaGrande', 'Lucida Grande', sans-serif;font-weight:500;font-size:13px;">Generated from custom.bolt.car</text>
        </g>
        <g transform="matrix(1,0,0,1,3036,1987)">
            <text x="-137.693px" y="0px" style="font-family:'LucidaGrande', 'Lucida Grande', sans-serif;font-weight:500;font-size:13px;">Typeset at 100 points</text>
        </g>
        <g transform="matrix(1,0,0,1,263,726)">
            <text x="0px" y="0px" style="font-family:'LucidaGrande', 'Lucida Grande', sans-serif;font-weight:500;font-size:13px;">Small</text>
        </g>
        <g transform="matrix(1,0,0,1,263,1156)">
            <text x="0px" y="0px" style="font-family:'LucidaGrande', 'Lucida Grande', sans-serif;font-weight:500;font-size:13px;">Medium</text>
        </g>
        <g transform="matrix(1,0,0,1,263,1586)">
            <text x="0px" y="0px" style="font-family:'LucidaGrande', 'Lucida Grande', sans-serif;font-weight:500;font-size:13px;">Large</text>
        </g>
    </g>
    <g id="Guides">
        <g id="H-reference" transform="matrix(1,0,0,1,339,696)">
            <path d="M0.993,0L3.638,0L29.328,-67.133L30.03,-67.133L30.03,-70.459L28.123,-70.459L0.993,0ZM11.688,-24.48L46.982,-24.48L46.231,-26.729L12.438,-26.729L11.688,-24.48ZM55.119,0L57.764,0L30.638,-70.459L29.433,-70.459L29.433,-67.133L55.119,0Z" style="fill:rgb(39,170,225);fill-rule:nonzero;"/>
        </g>
        <path id="Baseline-S" d="M263,696L3036,696" style="fill:none;fill-rule:nonzero;stroke:rgb(39,170,225);stroke-width:0.5px;"/>
        <path id="Capline-S" d="M263,625.541L3036,625.541" style="fill:none;fill-rule:nonzero;stroke:rgb(39,170,225);stroke-width:0.5px;"/>
        <g id="H-reference1" serif:id="H-reference" transform="matrix(1,0,0,1,339,1126)">
            <path d="M0.993,0L3.638,0L29.328,-67.133L30.03,-67.133L30.03,-70.459L28.123,-70.459L0.993,0ZM11.688,-24.48L46.982,-24.48L46.231,-26.729L12.438,-26.729L11.688,-24.48ZM55.119,0L57.764,0L30.638,-70.459L29.433,-70.459L29.433,-67.133L55.119,0Z" style="fill:rgb(39,170,225);fill-rule:nonzero;"/>
        </g>
        <path id="Baseline-M" d="M263,1126L3036,1126" style="fill:none;fill-rule:nonzero;stroke:rgb(39,170,225);stroke-width:0.5px;"/>
        <path id="Capline-M" d="M263,1055.54L3036,1055.54" style="fill:none;fill-rule:nonzero;stroke:rgb(39,170,225);stroke-width:0.5px;"/>
        <g id="H-reference2" serif:id="H-reference" transform="matrix(1,0,0,1,339,1556)">
            <path d="M0.993,0L3.638,0L29.328,-67.133L30.03,-67.133L30.03,-70.459L28.123,-70.459L0.993,0ZM11.688,-24.48L46.982,-24.48L46.231,-26.729L12.438,-26.729L11.688,-24.48ZM55.119,0L57.764,0L30.638,-70.459L29.433,-70.459L29.433,-67.133L55.119,0Z" style="fill:rgb(39,170,225);fill-rule:nonzero;"/>
        </g>
        <path id="Baseline-L" d="M263,1556L3036,1556" style="fill:none;fill-rule:nonzero;stroke:rgb(39,170,225);stroke-width:0.5px;"/>
        <path id="Capline-L" d="M263,1485.54L3036,1485.54" style="fill:none;fill-rule:nonzero;stroke:rgb(39,170,225);stroke-width:0.5px;"/>
        <path id="left-margin-Regular-M" d="M1379.62,1030.78L1379.62,1150.12" style="fill:none;fill-rule:nonzero;stroke:rgb(0,174,239);stroke-width:0.5px;"/>
        <path id="right-margin-Regular-M" d="M1520.06,1030.78L1520.06,1150.12" style="fill:none;fill-rule:nonzero;stroke:rgb(0,174,239);stroke-width:0.5px;"/>
    </g>
    <g id="Symbols">
        <g id="Medium-M" transform="matrix(1,0,0,1,1379.62,1126)">
            <g transform="matrix(0.040057,0,0,0.040057,359.146,-35.2045)">
                <g id="Medium-M1" serif:id="Medium-M">
                    <g transform="matrix(1,0,0,1,-1255.39,-877.785)">
                        <clipPath id="_clip1">
                            <rect x="0" y="0" width="2510.79" height="1755.57"/>
                        </clipPath>
                        <g clip-path="url(#_clip1)">
                            <g transform="matrix(0.095238,-1.4585e-16,-1.4585e-16,-0.095238,-24.4675,1901.8)">
                                <path d="M13167,19959C10393,19830 7840,18471 6156,16228C5577,15456 5098,14542 4788,13619C4526,12837 4372,12026 4325,11173C4310,10890 4318,10208 4341,9950C4442,8797 4708,7793 5182,6782C5820,5421 6824,4207 8067,3293C10546,1472 13830,1032 16737,2132C17400,2382 18110,2754 18700,3159C18872,3276 19235,3551 19383,3676C20076,4257 20660,4901 21153,5628C21993,6866 22521,8290 22685,9760C22732,10180 22738,10304 22738,10826C22737,11358 22728,11530 22674,11963C22427,13953 21548,15775 20139,17213C19027,18349 17692,19154 16186,19598C15229,19880 14176,20006 13167,19959ZM13928,18339C14776,18315 15717,18103 16551,17748C17880,17184 19040,16222 19853,15012C20886,13475 21310,11611 21052,9749C20792,7879 19828,6154 18358,4928C17296,4043 15993,3453 14641,3245C14242,3183 13913,3159 13472,3159C13035,3159 12731,3181 12334,3240C10713,3482 9223,4247 8069,5430C6940,6589 6235,8023 6007,9624C5949,10029 5938,10199 5938,10684C5938,11147 5944,11266 5991,11645C6261,13818 7472,15786 9308,17034C10492,17838 11903,18298 13319,18343C13452,18347 13601,18349 13650,18347C13699,18345 13824,18341 13928,18339Z" style="fill-rule:nonzero;"/>
                                <path d="M17372,13586C16997,13562 16697,13484 16511,13361C16375,13271 16252,13131 16176,12979C16047,12724 15988,12272 16024,11822C16075,11172 16291,10835 16754,10678C16994,10597 17239,10571 18211,10521C18445,10509 18551,10491 18643,10448C18733,10407 18779,10363 18821,10276C18881,10155 18894,10075 18894,9828C18894,9703 18888,9578 18880,9531C18834,9250 18714,9135 18406,9076C18340,9063 18229,9058 17968,9054C17372,9045 17159,9078 17026,9199C16915,9301 16886,9405 16877,9726L16871,9944L15981,9944L15981,9715C15981,9296 16027,9051 16151,8808C16289,8537 16535,8362 16884,8286C17122,8235 17250,8227 17861,8227C18469,8227 18623,8236 18858,8285C19438,8405 19703,8737 19777,9438C19795,9606 19798,10098 19782,10260C19723,10856 19527,11110 19027,11236C18806,11292 18568,11320 17803,11377C17419,11406 17262,11432 17141,11487C16961,11569 16909,11716 16918,12122C16923,12370 16937,12446 16993,12539C17070,12668 17209,12727 17505,12759C17682,12778 18313,12775 18428,12754C18601,12724 18690,12672 18745,12571C18790,12489 18806,12402 18813,12198L18819,12012L19719,12012L19719,12067C19717,12227 19698,12524 19682,12616C19586,13188 19303,13470 18732,13560C18677,13569 18564,13581 18480,13587C18304,13599 17573,13598 17372,13586Z" style="fill-rule:nonzero;"/>
                                <path d="M8595,13537C8592,13527 8238,12347 7807,10915C7376,9483 7021,8300 7018,8287L7012,8263L7942,8269L8069,8694C8139,8928 8207,9154 8220,9195L8243,9272L10289,9272L10321,9169C10338,9113 10407,8888 10473,8669C10540,8450 10596,8269 10598,8267C10600,8265 10805,8265 11054,8266L11505,8269L10740,10841C10320,12256 9966,13446 9954,13485L9932,13556L9267,13556C8642,13556 8601,13554 8595,13537ZM9308,12729C9318,12695 9498,12079 9708,11359C9918,10639 10091,10044 10091,10038C10091,10031 9831,10028 9272,10028C8821,10028 8453,10030 8453,10032C8453,10036 9101,12216 9267,12771C9277,12804 9291,12790 9308,12729Z" style="fill-rule:nonzero;"/>
                                <path d="M11798,12823C11795,12420 11789,11230 11785,10177L11778,8264L13070,8264C13890,8263 14412,8268 14497,8275C14860,8305 15106,8393 15278,8555C15462,8728 15559,8952 15609,9319C15635,9510 15636,10002 15610,10175C15544,10622 15355,10860 14995,10950C14946,10962 14895,10973 14882,10973C14865,10973 14858,10979 14858,10992C14858,11007 14877,11019 14939,11040C15282,11161 15446,11377 15510,11792C15520,11851 15524,11988 15524,12206C15524,12499 15521,12545 15499,12667C15395,13251 15118,13490 14480,13545C14408,13551 13837,13555 13082,13555L11805,13556L11798,12823ZM14274,12679C14459,12646 14545,12574 14596,12411C14623,12323 14635,12131 14625,11943C14606,11580 14528,11444 14291,11365C14237,11347 14177,11346 13464,11342L12695,11339L12695,12695L13439,12695C14057,12695 14198,12692 14274,12679ZM14383,10549C14569,10499 14660,10401 14707,10201C14723,10131 14726,10073 14726,9849C14726,9602 14724,9575 14702,9499C14655,9335 14592,9251 14476,9198C14334,9132 14331,9132 13469,9127L12684,9123L12684,10574L13500,10571C14225,10567 14324,10565 14383,10549Z" style="fill-rule:nonzero;"/>
                                <path d="M3124,18395C2302,17334 1612,16104 1118,14819C200,12432 11,9960 574,7702C933,6257 1598,4876 2539,3617C2740,3348 2987,3046 3001,3050C3033,3062 4715,4414 4711,4425C4708,4432 4648,4510 4576,4599C3687,5709 3072,6918 2747,8195C2371,9673 2378,11213 2767,12794C3055,13965 3548,15118 4211,16168C4421,16500 4600,16753 4921,17172L4954,17215L4126,17895C3670,18269 3291,18577 3284,18580C3276,18583 3212,18509 3124,18395Z" style="fill-rule:nonzero;"/>
                                <path d="M23111,18101C22784,17835 22406,17526 22269,17415L22021,17213L22121,17083C22959,15986 23610,14695 23999,13361C24485,11689 24541,9992 24161,8426C23821,7027 23177,5766 22182,4550L22073,4417L22925,3731C23394,3354 23780,3045 23783,3045C23786,3045 23858,3129 23941,3231C24915,4423 25619,5678 26066,7017C26369,7925 26547,8863 26608,9870C26624,10131 26624,10830 26608,11104C26476,13346 25739,15554 24455,17556C24222,17918 23739,18587 23712,18584C23707,18584 23437,18366 23111,18101Z" style="fill-rule:nonzero;"/>
                            </g>
                        </g>
                    </g>
                </g>
            </g>
        </g>
        <g id="Regular-M" transform="matrix(1,0,0,1,1379.62,1126)">
            <g transform="matrix(0.040057,0,0,0.040057,68.483,-35.2045)">
                <g id="Regular-M1" serif:id="Regular-M">
                    <g transform="matrix(1,0,0,1,-1255.39,-877.785)">
                        <clipPath id="_clip2">
                            <rect x="0" y="0" width="2510.79" height="1755.57"/>
                        </clipPath>
                        <g clip-path="url(#_clip2)">
                            <g transform="matrix(0.095238,-1.4585e-16,-1.4585e-16,-0.095238,-24.4675,1901.8)">
                                <path d="M13167,19959C10393,19830 7840,18471 6156,16228C5577,15456 5098,14542 4788,13619C4526,12837 4372,12026 4325,11173C4310,10890 4318,10208 4341,9950C4442,8797 4708,7793 5182,6782C5820,5421 6824,4207 8067,3293C10546,1472 13830,1032 16737,2132C17400,2382 18110,2754 18700,3159C18872,3276 19235,3551 19383,3676C20076,4257 20660,4901 21153,5628C21993,6866 22521,8290 22685,9760C22732,10180 22738,10304 22738,10826C22737,11358 22728,11530 22674,11963C22427,13953 21548,15775 20139,17213C19027,18349 17692,19154 16186,19598C15229,19880 14176,20006 13167,19959ZM13928,18339C14776,18315 15717,18103 16551,17748C17880,17184 19040,16222 19853,15012C20886,13475 21310,11611 21052,9749C20792,7879 19828,6154 18358,4928C17296,4043 15993,3453 14641,3245C14242,3183 13913,3159 13472,3159C13035,3159 12731,3181 12334,3240C10713,3482 9223,4247 8069,5430C6940,6589 6235,8023 6007,9624C5949,10029 5938,10199 5938,10684C5938,11147 5944,11266 5991,11645C6261,13818 7472,15786 9308,17034C10492,17838 11903,18298 13319,18343C13452,18347 13601,18349 13650,18347C13699,18345 13824,18341 13928,18339Z" style="fill-rule:nonzero;"/>
                                <path d="M17372,13586C16997,13562 16697,13484 16511,13361C16375,13271 16252,13131 16176,12979C16047,12724 15988,12272 16024,11822C16075,11172 16291,10835 16754,10678C16994,10597 17239,10571 18211,10521C18445,10509 18551,10491 18643,10448C18733,10407 18779,10363 18821,10276C18881,10155 18894,10075 18894,9828C18894,9703 18888,9578 18880,9531C18834,9250 18714,9135 18406,9076C18340,9063 18229,9058 17968,9054C17372,9045 17159,9078 17026,9199C16915,9301 16886,9405 16877,9726L16871,9944L15981,9944L15981,9715C15981,9296 16027,9051 16151,8808C16289,8537 16535,8362 16884,8286C17122,8235 17250,8227 17861,8227C18469,8227 18623,8236 18858,8285C19438,8405 19703,8737 19777,9438C19795,9606 19798,10098 19782,10260C19723,10856 19527,11110 19027,11236C18806,11292 18568,11320 17803,11377C17419,11406 17262,11432 17141,11487C16961,11569 16909,11716 16918,12122C16923,12370 16937,12446 16993,12539C17070,12668 17209,12727 17505,12759C17682,12778 18313,12775 18428,12754C18601,12724 18690,12672 18745,12571C18790,12489 18806,12402 18813,12198L18819,12012L19719,12012L19719,12067C19717,12227 19698,12524 19682,12616C19586,13188 19303,13470 18732,13560C18677,13569 18564,13581 18480,13587C18304,13599 17573,13598 17372,13586Z" style="fill-rule:nonzero;"/>
                                <path d="M8595,13537C8592,13527 8238,12347 7807,10915C7376,9483 7021,8300 7018,8287L7012,8263L7942,8269L8069,8694C8139,8928 8207,9154 8220,9195L8243,9272L10289,9272L10321,9169C10338,9113 10407,8888 10473,8669C10540,8450 10596,8269 10598,8267C10600,8265 10805,8265 11054,8266L11505,8269L10740,10841C10320,12256 9966,13446 9954,13485L9932,13556L9267,13556C8642,13556 8601,13554 8595,13537ZM9308,12729C9318,12695 9498,12079 9708,11359C9918,10639 10091,10044 10091,10038C10091,10031 9831,10028 9272,10028C8821,10028 8453,10030 8453,10032C8453,10036 9101,12216 9267,12771C9277,12804 9291,12790 9308,12729Z" style="fill-rule:nonzero;"/>
                                <path d="M11798,12823C11795,12420 11789,11230 11785,10177L11778,8264L13070,8264C13890,8263 14412,8268 14497,8275C14860,8305 15106,8393 15278,8555C15462,8728 15559,8952 15609,9319C15635,9510 15636,10002 15610,10175C15544,10622 15355,10860 14995,10950C14946,10962 14895,10973 14882,10973C14865,10973 14858,10979 14858,10992C14858,11007 14877,11019 14939,11040C15282,11161 15446,11377 15510,11792C15520,11851 15524,11988 15524,12206C15524,12499 15521,12545 15499,12667C15395,13251 15118,13490 14480,13545C14408,13551 13837,13555 13082,13555L11805,13556L11798,12823ZM14274,12679C14459,12646 14545,12574 14596,12411C14623,12323 14635,12131 14625,11943C14606,11580 14528,11444 14291,11365C14237,11347 14177,11346 13464,11342L12695,11339L12695,12695L13439,12695C14057,12695 14198,12692 14274,12679ZM14383,10549C14569,10499 14660,10401 14707,10201C14723,10131 14726,10073 14726,9849C14726,9602 14724,9575 14702,9499C14655,9335 14592,9251 14476,9198C14334,9132 14331,9132 13469,9127L12684,9123L12684,10574L13500,10571C14225,10567 14324,10565 14383,10549Z" style="fill-rule:nonzero;"/>
                                <path d="M3124,18395C2302,17334 1612,16104 1118,14819C200,12432 11,9960 574,7702C933,6257 1598,4876 2539,3617C2740,3348 2987,3046 3001,3050C3033,3062 4715,4414 4711,4425C4708,4432 4648,4510 4576,4599C3687,5709 3072,6918 2747,8195C2371,9673 2378,11213 2767,12794C3055,13965 3548,15118 4211,16168C4421,16500 4600,16753 4921,17172L4954,17215L4126,17895C3670,18269 3291,18577 3284,18580C3276,18583 3212,18509 3124,18395Z" style="fill-rule:nonzero;"/>
                                <path d="M23111,18101C22784,17835 22406,17526 22269,17415L22021,17213L22121,17083C22959,15986 23610,14695 23999,13361C24485,11689 24541,9992 24161,8426C23821,7027 23177,5766 22182,4550L22073,4417L22925,3731C23394,3354 23780,3045 23783,3045C23786,3045 23858,3129 23941,3231C24915,4423 25619,5678 26066,7017C26369,7925 26547,8863 26608,9870C26624,10131 26624,10830 26608,11104C26476,13346 25739,15554 24455,17556C24222,17918 23739,18587 23712,18584C23707,18584 23437,18366 23111,18101Z" style="fill-rule:nonzero;"/>
                            </g>
                        </g>
                    </g>
                </g>
            </g>
        </g>
    </g>
</svg>
