<?xml version="1.0" encoding="UTF-8"?>
<!--Generator: Apple Native CoreSVG 175-->
<!DOCTYPE svg
PUBLIC "-//W3C//DTD SVG 1.1//EN"
       "http://www.w3.org/Graphics/SVG/1.1/DTD/svg11.dtd">
<svg version="1.1" xmlns="http://www.w3.org/2000/svg" xmlns:xlink="http://www.w3.org/1999/xlink" width="3300" height="2200">
 <!--glyph: "", point size: 100.0, font version: "17.1d1e1", template writer version: "65.1"-->
 <g id="Notes">
  <rect height="2200" id="artboard" style="fill:white;opacity:1" width="3300" x="0" y="0"/>
  <line style="fill:none;stroke:black;opacity:1;stroke-width:0.5;" x1="263" x2="3036" y1="292" y2="292"/>
  <text style="stroke:none;fill:black;font-family:sans-serif;font-size:13;font-weight:bold;" transform="matrix(1 0 0 1 263 322)">Weight/Scale Variations</text>
  <text style="stroke:none;fill:black;font-family:sans-serif;font-size:13;text-anchor:middle;" transform="matrix(1 0 0 1 559.711 322)">Ultralight</text>
  <text style="stroke:none;fill:black;font-family:sans-serif;font-size:13;text-anchor:middle;" transform="matrix(1 0 0 1 856.422 322)">Thin</text>
  <text style="stroke:none;fill:black;font-family:sans-serif;font-size:13;text-anchor:middle;" transform="matrix(1 0 0 1 1153.13 322)">Light</text>
  <text style="stroke:none;fill:black;font-family:sans-serif;font-size:13;text-anchor:middle;" transform="matrix(1 0 0 1 1449.84 322)">Regular</text>
  <text style="stroke:none;fill:black;font-family:sans-serif;font-size:13;text-anchor:middle;" transform="matrix(1 0 0 1 1746.56 322)">Medium</text>
  <text style="stroke:none;fill:black;font-family:sans-serif;font-size:13;text-anchor:middle;" transform="matrix(1 0 0 1 2043.27 322)">Semibold</text>
  <text style="stroke:none;fill:black;font-family:sans-serif;font-size:13;text-anchor:middle;" transform="matrix(1 0 0 1 2339.98 322)">Bold</text>
  <text style="stroke:none;fill:black;font-family:sans-serif;font-size:13;text-anchor:middle;" transform="matrix(1 0 0 1 2636.69 322)">Heavy</text>
  <text style="stroke:none;fill:black;font-family:sans-serif;font-size:13;text-anchor:middle;" transform="matrix(1 0 0 1 2933.4 322)">Black</text>
  <line style="fill:none;stroke:black;opacity:1;stroke-width:0.5;" x1="263" x2="3036" y1="1903" y2="1903"/>
  <g transform="matrix(1 0 0 1 263 1933)">
   <path d="M9.24805 0.830078Q10.8691 0.830078 12.2949 0.214844Q13.7207-0.400391 14.8096-1.49414Q15.8984-2.58789 16.5186-4.01367Q17.1387-5.43945 17.1387-7.05078Q17.1387-8.66211 16.5186-10.0879Q15.8984-11.5137 14.8047-12.6074Q13.7109-13.7012 12.2852-14.3164Q10.8594-14.9316 9.23828-14.9316Q7.62695-14.9316 6.20117-14.3164Q4.77539-13.7012 3.69141-12.6074Q2.60742-11.5137 1.9873-10.0879Q1.36719-8.66211 1.36719-7.05078Q1.36719-5.43945 1.9873-4.01367Q2.60742-2.58789 3.69629-1.49414Q4.78516-0.400391 6.21094 0.214844Q7.63672 0.830078 9.24805 0.830078ZM9.24805-0.654297Q7.91992-0.654297 6.7627-1.14746Q5.60547-1.64062 4.73145-2.51953Q3.85742-3.39844 3.36426-4.56055Q2.87109-5.72266 2.87109-7.05078Q2.87109-8.37891 3.35938-9.54102Q3.84766-10.7031 4.72168-11.582Q5.5957-12.4609 6.75293-12.9541Q7.91016-13.4473 9.23828-13.4473Q10.5762-13.4473 11.7334-12.9541Q12.8906-12.4609 13.7695-11.582Q14.6484-10.7031 15.1465-9.54102Q15.6445-8.37891 15.6445-7.05078Q15.6445-5.72266 15.1514-4.56055Q14.6582-3.39844 13.7842-2.51953Q12.9102-1.64062 11.748-1.14746Q10.5859-0.654297 9.24805-0.654297ZM5.6543-7.05078Q5.6543-6.72852 5.85938-6.52832Q6.06445-6.32812 6.40625-6.32812L8.51562-6.32812L8.51562-4.20898Q8.51562-3.88672 8.71094-3.67676Q8.90625-3.4668 9.23828-3.4668Q9.56055-3.4668 9.77051-3.67676Q9.98047-3.88672 9.98047-4.20898L9.98047-6.32812L12.0898-6.32812Q12.4219-6.32812 12.627-6.52832Q12.832-6.72852 12.832-7.05078Q12.832-7.38281 12.627-7.58789Q12.4219-7.79297 12.0898-7.79297L9.98047-7.79297L9.98047-9.90234Q9.98047-10.2344 9.77051-10.4443Q9.56055-10.6543 9.23828-10.6543Q8.90625-10.6543 8.71094-10.4443Q8.51562-10.2344 8.51562-9.90234L8.51562-7.79297L6.40625-7.79297Q6.06445-7.79297 5.85938-7.58789Q5.6543-7.38281 5.6543-7.05078Z"/>
  </g>
  <g transform="matrix(1 0 0 1 281.867 1933)">
   <path d="M11.709 2.91016Q13.75 2.91016 15.5518 2.12891Q17.3535 1.34766 18.7305-0.0292969Q20.1074-1.40625 20.8887-3.20801Q21.6699-5.00977 21.6699-7.05078Q21.6699-9.0918 20.8887-10.8936Q20.1074-12.6953 18.7305-14.0723Q17.3535-15.4492 15.5469-16.2305Q13.7402-17.0117 11.6992-17.0117Q9.6582-17.0117 7.85645-16.2305Q6.05469-15.4492 4.68262-14.0723Q3.31055-12.6953 2.5293-10.8936Q1.74805-9.0918 1.74805-7.05078Q1.74805-5.00977 2.5293-3.20801Q3.31055-1.40625 4.6875-0.0292969Q6.06445 1.34766 7.86621 2.12891Q9.66797 2.91016 11.709 2.91016ZM11.709 1.25Q9.98047 1.25 8.47656 0.605469Q6.97266-0.0390625 5.83496-1.17676Q4.69727-2.31445 4.05762-3.81836Q3.41797-5.32227 3.41797-7.05078Q3.41797-8.7793 4.05762-10.2832Q4.69727-11.7871 5.83008-12.9297Q6.96289-14.0723 8.4668-14.7119Q9.9707-15.3516 11.6992-15.3516Q13.4277-15.3516 14.9316-14.7119Q16.4355-14.0723 17.5781-12.9297Q18.7207-11.7871 19.3652-10.2832Q20.0098-8.7793 20.0098-7.05078Q20.0098-5.32227 19.3701-3.81836Q18.7305-2.31445 17.5928-1.17676Q16.4551-0.0390625 14.9463 0.605469Q13.4375 1.25 11.709 1.25ZM7.17773-7.05078Q7.17773-6.69922 7.41211-6.47461Q7.64648-6.25 8.01758-6.25L10.8887-6.25L10.8887-3.36914Q10.8887-2.99805 11.1133-2.76855Q11.3379-2.53906 11.6895-2.53906Q12.0605-2.53906 12.29-2.76855Q12.5195-2.99805 12.5195-3.36914L12.5195-6.25L15.4004-6.25Q15.7715-6.25 16.001-6.47461Q16.2305-6.69922 16.2305-7.05078Q16.2305-7.42188 16.001-7.65137Q15.7715-7.88086 15.4004-7.88086L12.5195-7.88086L12.5195-10.752Q12.5195-11.1328 12.29-11.3623Q12.0605-11.5918 11.6895-11.5918Q11.3379-11.5918 11.1133-11.3574Q10.8887-11.123 10.8887-10.752L10.8887-7.88086L8.01758-7.88086Q7.63672-7.88086 7.40723-7.65137Q7.17773-7.42188 7.17773-7.05078Z"/>
  </g>
  <g transform="matrix(1 0 0 1 305.646 1933)">
   <path d="M14.9707 5.66406Q17.0605 5.66406 18.96 5.01465Q20.8594 4.36523 22.4512 3.19336Q24.043 2.02148 25.2197 0.429688Q26.3965-1.16211 27.0459-3.06641Q27.6953-4.9707 27.6953-7.05078Q27.6953-9.14062 27.0459-11.04Q26.3965-12.9395 25.2197-14.5312Q24.043-16.123 22.4512-17.2998Q20.8594-18.4766 18.9551-19.126Q17.0508-19.7754 14.9609-19.7754Q12.8711-19.7754 10.9717-19.126Q9.07227-18.4766 7.48535-17.2998Q5.89844-16.123 4.72168-14.5312Q3.54492-12.9395 2.90039-11.04Q2.25586-9.14062 2.25586-7.05078Q2.25586-4.9707 2.90527-3.06641Q3.55469-1.16211 4.72656 0.429688Q5.89844 2.02148 7.49023 3.19336Q9.08203 4.36523 10.9814 5.01465Q12.8809 5.66406 14.9707 5.66406ZM14.9707 3.84766Q13.1641 3.84766 11.5283 3.2959Q9.89258 2.74414 8.53516 1.74805Q7.17773 0.751953 6.17676-0.610352Q5.17578-1.97266 4.62891-3.6084Q4.08203-5.24414 4.08203-7.05078Q4.08203-8.86719 4.62891-10.5029Q5.17578-12.1387 6.17188-13.501Q7.16797-14.8633 8.52539-15.8594Q9.88281-16.8555 11.5186-17.4023Q13.1543-17.9492 14.9609-17.9492Q16.7773-17.9492 18.4131-17.4023Q20.0488-16.8555 21.4111-15.8594Q22.7734-14.8633 23.7695-13.501Q24.7656-12.1387 25.3174-10.5029Q25.8691-8.86719 25.8691-7.05078Q25.8789-5.24414 25.332-3.6084Q24.7852-1.97266 23.7842-0.610352Q22.7832 0.751953 21.4209 1.74805Q20.0586 2.74414 18.4229 3.2959Q16.7871 3.84766 14.9707 3.84766ZM9.19922-7.05078Q9.19922-6.66992 9.45801-6.4209Q9.7168-6.17188 10.1172-6.17188L14.0625-6.17188L14.0625-2.2168Q14.0625-1.81641 14.3115-1.55762Q14.5605-1.29883 14.9512-1.29883Q15.3516-1.29883 15.6104-1.55273Q15.8691-1.80664 15.8691-2.2168L15.8691-6.17188L19.8242-6.17188Q20.2246-6.17188 20.4785-6.4209Q20.7324-6.66992 20.7324-7.05078Q20.7324-7.46094 20.4785-7.71484Q20.2246-7.96875 19.8242-7.96875L15.8691-7.96875L15.8691-11.9141Q15.8691-12.3242 15.6104-12.583Q15.3516-12.8418 14.9512-12.8418Q14.5605-12.8418 14.3115-12.583Q14.0625-12.3242 14.0625-11.9141L14.0625-7.96875L10.1172-7.96875Q9.70703-7.96875 9.45312-7.71484Q9.19922-7.46094 9.19922-7.05078Z"/>
  </g>
  <text style="stroke:none;fill:black;font-family:sans-serif;font-size:13;font-weight:bold;" transform="matrix(1 0 0 1 263 1953)">Design Variations</text>
  <text style="stroke:none;fill:black;font-family:sans-serif;font-size:13;" transform="matrix(1 0 0 1 263 1971)">Symbols are supported in up to nine weights and three scales.</text>
  <text style="stroke:none;fill:black;font-family:sans-serif;font-size:13;" transform="matrix(1 0 0 1 263 1989)">For optimal layout with text and other symbols, vertically align</text>
  <text style="stroke:none;fill:black;font-family:sans-serif;font-size:13;" transform="matrix(1 0 0 1 263 2007)">symbols with the adjacent text.</text>
  <line style="fill:none;stroke:#00AEEF;stroke-width:0.5;opacity:1.0;" x1="776" x2="776" y1="1919" y2="1933"/>
  <g transform="matrix(1 0 0 1 776 1933)">
   <path d="M3.31055 0.15625Q3.70117 0.15625 3.91602-0.00976562Q4.13086-0.175781 4.26758-0.585938L5.52734-4.0332L11.2891-4.0332L12.5488-0.585938Q12.6855-0.175781 12.9004-0.00976562Q13.1152 0.15625 13.4961 0.15625Q13.8867 0.15625 14.1162-0.0585938Q14.3457-0.273438 14.3457-0.644531Q14.3457-0.869141 14.2383-1.17188L9.6582-13.3691Q9.48242-13.8184 9.17969-14.043Q8.87695-14.2676 8.4082-14.2676Q7.5-14.2676 7.17773-13.3789L2.59766-1.16211Q2.49023-0.859375 2.49023-0.634766Q2.49023-0.263672 2.70996-0.0537109Q2.92969 0.15625 3.31055 0.15625ZM6.00586-5.51758L8.37891-12.0898L8.42773-12.0898L10.8008-5.51758Z"/>
  </g>
  <line style="fill:none;stroke:#00AEEF;stroke-width:0.5;opacity:1.0;" x1="793.197" x2="793.197" y1="1919" y2="1933"/>
  <text style="stroke:none;fill:black;font-family:sans-serif;font-size:13;font-weight:bold;" transform="matrix(1 0 0 1 776 1953)">Margins</text>
  <text style="stroke:none;fill:black;font-family:sans-serif;font-size:13;" transform="matrix(1 0 0 1 776 1971)">Leading and trailing margins on the left and right side of each symbol</text>
  <text style="stroke:none;fill:black;font-family:sans-serif;font-size:13;" transform="matrix(1 0 0 1 776 1989)">can be adjusted by modifying the x-location of the margin guidelines.</text>
  <text style="stroke:none;fill:black;font-family:sans-serif;font-size:13;" transform="matrix(1 0 0 1 776 2007)">Modifications are automatically applied proportionally to all</text>
  <text style="stroke:none;fill:black;font-family:sans-serif;font-size:13;" transform="matrix(1 0 0 1 776 2025)">scales and weights.</text>
  <g transform="matrix(1 0 0 1 1289 1933)">
   <path d="M2.8418 1.86523L4.54102 3.57422Q5.18555 4.22852 5.90332 4.17969Q6.62109 4.13086 7.31445 3.35938L18.0078-8.42773L17.041-9.4043L6.42578 2.27539Q6.16211 2.57812 5.89355 2.61719Q5.625 2.65625 5.27344 2.30469L4.10156 1.14258Q3.75 0.791016 3.79395 0.522461Q3.83789 0.253906 4.14062-0.0195312L15.6152-10.8203L14.6387-11.7871L3.04688-0.898438Q2.30469-0.214844 2.25098 0.498047Q2.19727 1.21094 2.8418 1.86523ZM9.25781-16.3281Q8.94531-16.0254 8.90625-15.6348Q8.86719-15.2441 9.04297-14.9512Q9.21875-14.6777 9.55566-14.541Q9.89258-14.4043 10.3809-14.5215Q11.4746-14.7754 12.5977-14.7314Q13.7207-14.6875 14.7949-13.9844L14.209-12.5293Q13.9551-11.9043 14.0674-11.4404Q14.1797-10.9766 14.5801-10.5664L16.875-8.25195Q17.2363-7.88086 17.5781-7.82227Q17.9199-7.76367 18.3398-7.8418L19.4043-8.03711L20.0684-7.36328L20.0293-6.80664Q20-6.43555 20.1221-6.12305Q20.2441-5.81055 20.6055-5.44922L21.3672-4.70703Q21.7285-4.3457 22.1533-4.33105Q22.5781-4.31641 22.9297-4.66797L25.8398-7.58789Q26.1914-7.93945 26.1816-8.35449Q26.1719-8.76953 25.8105-9.13086L25.0391-9.89258Q24.6875-10.2539 24.3799-10.3857Q24.0723-10.5176 23.7109-10.4883L23.1348-10.4395L22.4902-11.0742L22.7344-12.1973Q22.832-12.6172 22.6953-12.9834Q22.5586-13.3496 22.1191-13.7891L19.9219-15.9766Q18.6719-17.2168 17.2607-17.8369Q15.8496-18.457 14.4189-18.4814Q12.9883-18.5059 11.665-17.959Q10.3418-17.4121 9.25781-16.3281ZM10.752-15.957Q11.6602-16.6211 12.7002-16.9043Q13.7402-17.1875 14.8047-17.085Q15.8691-16.9824 16.8701-16.5137Q17.8711-16.0449 18.7012-15.2051L21.1328-12.793Q21.3086-12.6172 21.3525-12.4512Q21.3965-12.2852 21.3379-12.0312L21.0156-10.5469L22.5195-9.0625L23.5059-9.12109Q23.6914-9.13086 23.7891-9.09668Q23.8867-9.0625 24.0332-8.91602L24.6094-8.33984L22.168-5.89844L21.5918-6.47461Q21.4453-6.62109 21.4062-6.71875Q21.3672-6.81641 21.377-7.01172L21.4453-7.98828L19.9512-9.47266L18.4277-9.21875Q18.1836-9.16992 18.042-9.2041Q17.9004-9.23828 17.7148-9.41406L15.7129-11.416Q15.5176-11.5918 15.4932-11.7529Q15.4688-11.9141 15.5859-12.1875L16.4648-14.2773Q15.293-15.3711 13.8281-15.791Q12.3633-16.2109 10.8398-15.7617Q10.7227-15.7324 10.6885-15.8057Q10.6543-15.8789 10.752-15.957Z"/>
  </g>
  <text style="stroke:none;fill:black;font-family:sans-serif;font-size:13;font-weight:bold;" transform="matrix(1 0 0 1 1289 1953)">Exporting</text>
  <text style="stroke:none;fill:black;font-family:sans-serif;font-size:13;" transform="matrix(1 0 0 1 1289 1971)">Symbols should be outlined when exporting to ensure the</text>
  <text style="stroke:none;fill:black;font-family:sans-serif;font-size:13;" transform="matrix(1 0 0 1 1289 1989)">design is preserved when submitting to Xcode.</text>
  <text id="template-version" style="stroke:none;fill:black;font-family:sans-serif;font-size:13;text-anchor:end;" transform="matrix(1 0 0 1 3036 1933)">Template v.3.0</text>
  <text style="stroke:none;fill:black;font-family:sans-serif;font-size:13;text-anchor:end;" transform="matrix(1 0 0 1 3036 1951)">Requires Xcode 13 or greater</text>
  <text id="descriptive-name" style="stroke:none;fill:black;font-family:sans-serif;font-size:13;text-anchor:end;" transform="matrix(1 0 0 1 3036 1969)">Generated from serivce.rotate-tires</text>
  <text style="stroke:none;fill:black;font-family:sans-serif;font-size:13;text-anchor:end;" transform="matrix(1 0 0 1 3036 1987)">Typeset at 100 points</text>
  <text style="stroke:none;fill:black;font-family:sans-serif;font-size:13;" transform="matrix(1 0 0 1 263 726)">Small</text>
  <text style="stroke:none;fill:black;font-family:sans-serif;font-size:13;" transform="matrix(1 0 0 1 263 1156)">Medium</text>
  <text style="stroke:none;fill:black;font-family:sans-serif;font-size:13;" transform="matrix(1 0 0 1 263 1586)">Large</text>
 </g>
 <g id="Guides">
  <g id="H-reference" style="fill:#27AAE1;stroke:none;" transform="matrix(1 0 0 1 339 696)">
   <path d="M0.993347 0L3.6377 0L29.3282-67.1326L30.0301-67.1326L30.0301-70.459L28.1227-70.459ZM11.6882-24.4797L46.9818-24.4797L46.2311-26.7288L12.4382-26.7288ZM55.1193 0L57.7637 0L30.6381-70.459L29.4327-70.459L29.4327-67.1326Z"/>
  </g>
  <line id="Baseline-S" style="fill:none;stroke:#27AAE1;opacity:1;stroke-width:0.5;" x1="263" x2="3036" y1="696" y2="696"/>
  <line id="Capline-S" style="fill:none;stroke:#27AAE1;opacity:1;stroke-width:0.5;" x1="263" x2="3036" y1="625.541" y2="625.541"/>
  <g id="H-reference" style="fill:#27AAE1;stroke:none;" transform="matrix(1 0 0 1 339 1126)">
   <path d="M0.993347 0L3.6377 0L29.3282-67.1326L30.0301-67.1326L30.0301-70.459L28.1227-70.459ZM11.6882-24.4797L46.9818-24.4797L46.2311-26.7288L12.4382-26.7288ZM55.1193 0L57.7637 0L30.6381-70.459L29.4327-70.459L29.4327-67.1326Z"/>
  </g>
  <line id="Baseline-M" style="fill:none;stroke:#27AAE1;opacity:1;stroke-width:0.5;" x1="263" x2="3036" y1="1126" y2="1126"/>
  <line id="Capline-M" style="fill:none;stroke:#27AAE1;opacity:1;stroke-width:0.5;" x1="263" x2="3036" y1="1055.54" y2="1055.54"/>
  <g id="H-reference" style="fill:#27AAE1;stroke:none;" transform="matrix(1 0 0 1 339 1556)">
   <path d="M0.993347 0L3.6377 0L29.3282-67.1326L30.0301-67.1326L30.0301-70.459L28.1227-70.459ZM11.6882-24.4797L46.9818-24.4797L46.2311-26.7288L12.4382-26.7288ZM55.1193 0L57.7637 0L30.6381-70.459L29.4327-70.459L29.4327-67.1326Z"/>
  </g>
  <line id="Baseline-L" style="fill:none;stroke:#27AAE1;opacity:1;stroke-width:0.5;" x1="263" x2="3036" y1="1556" y2="1556"/>
  <line id="Capline-L" style="fill:none;stroke:#27AAE1;opacity:1;stroke-width:0.5;" x1="263" x2="3036" y1="1485.54" y2="1485.54"/>
  <line id="left-margin-Regular-M" style="fill:none;stroke:#00AEEF;stroke-width:0.5;opacity:1.0;" x1="1379.84" x2="1379.84" y1="1030.78" y2="1150.12"/>
  <line id="right-margin-Regular-M" style="fill:none;stroke:#00AEEF;stroke-width:0.5;opacity:1.0;" x1="1519.85" x2="1519.85" y1="1030.78" y2="1150.12"/>
 </g>
 <g id="Symbols">
  <g id="Medium-M" transform="matrix(1 0 0 1 1676.55 1126)">
   <path d="M71.8801-63.4199C56.8821-67.4386 41.3283-58.4524 37.3096-43.4544C33.2908-28.4565 42.2693-12.9047 57.2675-8.88591C72.2658-4.86707 87.8247-13.8436 91.8435-28.8419C95.8624-43.8401 86.878-59.4011 71.8801-63.4199ZM80.9869-31.7543C78.5582-22.6905 69.2417-17.3117 60.178-19.7403C51.1142-22.169 45.7354-31.4855 48.164-40.5493C50.5927-49.613 59.9092-54.9919 68.973-52.5632C78.0367-50.1345 83.4156-40.818 80.9869-31.7543ZM68.3867-50.3696L64.9813-49.4565L64.0688-46.0508L66.5616-43.5583L69.9667-44.4705L70.8793-47.8761L68.3867-50.3696ZM67.9486-48.7344C68.9264-48.4724 69.5066-47.4675 69.2446-46.4896C68.9826-45.512 67.9777-44.9315 66.9998-45.1936C66.0219-45.4556 65.4418-46.4608 65.7037-47.4384C65.9658-48.4163 66.9707-48.9964 67.9486-48.7344ZM63.7532-28.1913L60.2466-28.5605L58.1733-25.7088L59.6062-22.4882L63.1118-22.1179L65.1851-24.9696L63.7529-28.1914L63.7532-28.1913ZM62.7575-26.8221C63.5764-26.227 63.7576-25.0805 63.1622-24.2617C62.5668-23.443 61.4206-23.262 60.6019-23.8574C59.7831-24.4525 59.6019-25.5991 60.1972-26.4178C60.7926-27.2365 61.9391-27.4174 62.7575-26.8221ZM78.7088-40.0433L76.2153-42.5359L72.8096-41.6233L71.8974-38.2182L74.3899-35.7253L77.7956-36.6379L78.7088-40.0433ZM77.0735-39.6051C77.3355-38.6272 76.7553-37.6223 75.7775-37.3603C74.7999-37.0984 73.7947-37.6785 73.5326-38.6564C73.2706-39.6342 73.8511-40.6392 74.8287-40.9012C75.8066-41.1632 76.8115-40.583 77.0735-39.6051ZM57.185-32.9669L55.7513-36.1882L52.2451-36.558L50.1723-33.7067L51.6045-30.4857L55.1107-30.1159L57.1849-32.9672L57.185-32.9669ZM55.5013-33.1445C55.3954-32.1379 54.493-31.4076 53.4863-31.5139C52.4795-31.6202 51.7497-32.5223 51.856-33.5291C51.9619-34.5357 52.8643-35.2659 53.871-35.1597C54.8778-35.0534 55.6077-34.1509 55.5013-33.1445ZM74.6539-25.7574L75.5658-29.1632L73.0727-31.6563L69.6676-30.7437L68.755-27.3387L71.2482-24.8456L74.6539-25.7574ZM73.4568-26.9545C72.7409-26.2387 71.5806-26.2387 70.8647-26.9545C70.1491-27.6702 70.1489-28.8308 70.8647-29.5466C71.5806-30.2625 72.7412-30.2622 73.4568-29.5466C74.1727-28.8308 74.1727-27.6704 73.4568-26.9545ZM57.7636-40.8593L59.8365-43.7116L58.4036-46.933L54.898-47.3024L52.8245-44.4515L54.2575-41.2301L57.7638-40.8596L57.7636-40.8593ZM57.0756-42.4062C56.1509-41.9947 55.0673-42.411 54.6559-43.336C54.2446-44.261 54.6609-45.3441 55.5859-45.7555C56.5107-46.167 57.5943-45.7507 58.0056-44.8257C58.417-43.9007 58.0004-42.8174 57.0756-42.4062ZM71.1378-34.3945C70.1666-30.77 66.4411-28.6189 62.8164-29.5902C59.1918-30.5614 57.0409-34.2869 58.0122-37.9115C58.9834-41.5362 62.7088-43.6871 66.3335-42.7158C69.9582-41.7446 72.109-38.0191 71.1378-34.3945ZM27.5395-14.236C27.5395-10.557 28.2885-7.34295 29.7865-4.59195C31.2835-1.84195 33.3745 0.299046 36.0605 1.82905C38.7455 3.35905 41.8955 4.12405 45.5085 4.12405L46.2895 4.12405L46.2895 9.00604C46.2895 10.569 46.7705 11.513 47.7305 11.839C48.6905 12.164 49.7565 11.887 50.9285 11.008L60.6455 3.78205C61.4595 3.16305 61.8745 2.52005 61.8905 1.85305C61.9065 1.18605 61.4915 0.527046 60.6455-0.123953L50.9285-7.30195C49.7565-8.14895 48.6905-8.40095 47.7305-8.05895C46.7705-7.71695 46.2895-6.79795 46.2895-5.29995L46.2895-0.856953L45.5575-0.856953C43.0185-0.856953 40.8045-1.41795 38.9165-2.54095C37.0285-3.66395 35.5555-5.22695 34.4975-7.22895C33.4395-9.23095 32.9105-11.567 32.9105-14.236L32.9105-19.6559C32.9105-20.4039 32.6505-21.0389 32.1295-21.5599C31.6085-22.0809 30.9745-22.3409 30.2255-22.3409C29.5095-22.3409 28.8825-22.0809 28.3455-21.5599C27.8085-21.0389 27.5395-20.4039 27.5395-19.6559L27.5395-14.236ZM68.5555-72.1949L78.2235-65.0169C79.3955-64.1379 80.4615-63.8699 81.4215-64.2109C82.3815-64.5529 82.8625-65.4729 82.8625-66.9699L82.8625-71.4139L83.6435-71.4139C86.1825-71.4139 88.3965-70.8519 90.2845-69.7289C92.1715-68.6059 93.6365-67.0429 94.6785-65.0409C95.7205-63.0389 96.2405-60.7039 96.2405-58.0349L96.2405-52.6149C96.2405-51.8659 96.5095-51.2309 97.0465-50.7099C97.5835-50.1899 98.2105-49.9289 98.9265-49.9289C99.6755-49.9289 100.31-50.1899 100.83-50.7099C101.351-51.2309 101.612-51.8659 101.612-52.6149L101.612-58.0829C101.612-61.7289 100.863-64.9279 99.3655-67.6779C97.8685-70.4289 95.7775-72.5689 93.0915-74.0989C90.4065-75.6289 87.2725-76.3939 83.6925-76.3939L82.8625-76.3939L82.8625-81.2769C82.8625-82.8389 82.3815-83.7909 81.4215-84.1329C80.4615-84.4749 79.3955-84.2059 78.2235-83.3279L68.5555-76.1009C67.7095-75.4499 67.2865-74.7909 67.2865-74.1229C67.2865-73.4559 67.7095-72.8129 68.5555-72.1949Z"/>
  </g>
  <g id="Regular-M" transform="matrix(1 0 0 1 1379.84 1126)">
   <path d="M71.88-63.4232C56.882-67.4419 41.3282-58.4557 37.3094-43.4577C33.2907-28.4597 42.2691-12.9079 57.2674-8.88909C72.2658-4.87025 87.8247-13.8468 91.8435-28.8451C95.8624-43.8434 86.878-59.4044 71.88-63.4232ZM80.9869-31.7575C78.5582-22.6937 69.2417-17.3149 60.1779-19.7435C51.1141-22.1722 45.7352-31.4887 48.1639-40.5525C50.5926-49.6163 59.9091-54.9952 68.9729-52.5665C78.0367-50.1378 83.4155-40.8213 80.9869-31.7575ZM68.3867-50.3729L64.9813-49.4598L64.0687-46.0541L66.5615-43.5616L69.9667-44.4737L70.8792-47.8794L68.3867-50.3729ZM67.9485-48.7377C68.9264-48.4757 69.5066-47.4708 69.2445-46.4929C68.9826-45.5153 67.9776-44.9348 66.9997-45.1968C66.0218-45.4589 65.4417-46.4641 65.7037-47.4416C65.9657-48.4195 66.9706-48.9997 67.9485-48.7377ZM63.7531-28.1946L60.2465-28.5637L58.1732-25.7121L59.6061-22.4914L63.1117-22.1211L65.1851-24.9728L63.7528-28.1947L63.7531-28.1946ZM62.7575-26.8253C63.5763-26.2303 63.7575-25.0837 63.1621-24.2649C62.5667-23.4462 61.4205-23.2652 60.6018-23.8606C59.783-24.4557 59.6018-25.6023 60.1972-26.421C60.7926-27.2398 61.9391-27.4206 62.7575-26.8253ZM78.7087-40.0465L76.2152-42.5391L72.8095-41.6266L71.8973-38.2215L74.3899-35.7286L77.7956-36.6411L78.7087-40.0465ZM77.0735-39.6084C77.3355-38.6305 76.7553-37.6256 75.7774-37.3636C74.7998-37.1016 73.7946-37.6817 73.5326-38.6596C73.2706-39.6375 73.8511-40.6425 74.8287-40.9044C75.8065-41.1665 76.8115-40.5863 77.0735-39.6084ZM57.1849-32.9701L55.7512-36.1915L52.2449-36.5613L50.1722-33.71L51.6044-30.4889L55.1106-30.1191L57.1848-32.9704L57.1849-32.9701ZM55.5012-33.1478C55.3953-32.1411 54.4929-31.4109 53.4861-31.5172C52.4794-31.6234 51.7496-32.5256 51.8559-33.5323C51.9618-34.539 52.8642-35.2692 53.8709-35.1629C54.8777-35.0567 55.6076-34.1542 55.5012-33.1478ZM74.6538-25.7607L75.5657-29.1664L73.0726-31.6595L69.6676-30.747L68.755-27.3419L71.2481-24.8488L74.6538-25.7607ZM73.4568-26.9578C72.7409-26.2419 71.5805-26.2419 70.8647-26.9578C70.149-27.6734 70.1488-28.834 70.8647-29.5499C71.5805-30.2657 72.7411-30.2655 73.4568-29.5499C74.1726-28.834 74.1726-27.6736 73.4568-26.9578ZM57.7635-40.8626L59.8365-43.7149L58.4035-46.9363L54.8979-47.3057L52.8244-44.4548L54.2574-41.2334L57.7637-40.8628L57.7635-40.8626ZM57.0755-42.4095C56.1508-41.9979 55.0672-42.4143 54.6558-43.3393C54.2445-44.2643 54.6608-45.3474 55.5858-45.7587C56.5106-46.1703 57.5942-45.754 58.0055-44.829C58.4169-43.904 58.0003-42.8206 57.0755-42.4095ZM71.1377-34.3977C70.1665-30.7733 66.441-28.6222 62.8164-29.5934C59.1917-30.5647 57.0408-34.2901 58.0121-37.9148C58.9833-41.5395 62.7087-43.6903 66.3334-42.7191C69.9581-41.7478 72.109-38.0224 71.1377-34.3977ZM27.5395-14.2393C27.5395-10.5603 28.2885-7.34632 29.7865-4.59532C31.2835-1.84533 33.3745 0.295666 36.0604 1.82566C38.7454 3.35566 41.8954 4.12066 45.5084 4.12066L46.2894 4.12066L46.2894 9.00265C46.2894 10.5656 46.7704 11.5096 47.7304 11.8356C48.6904 12.1606 49.7564 11.8836 50.9284 11.0046L60.6454 3.77866C61.4594 3.15966 61.8744 2.51666 61.8904 1.84966C61.9064 1.18266 61.4914 0.523666 60.6454-0.127333L50.9284-7.30532C49.7564-8.15232 48.6904-8.40431 47.7304-8.06232C46.7704-7.72032 46.2894-6.80132 46.2894-5.30332L46.2894-0.860331L45.5574-0.860331C43.0184-0.860331 40.8044-1.42133 38.9164-2.54433C37.0284-3.66732 35.5554-5.23032 34.4975-7.23232C33.4395-9.23431 32.9105-11.5703 32.9105-14.2393L32.9105-19.6593C32.9105-20.4073 32.6505-21.0423 32.1295-21.5633C31.6085-22.0843 30.9745-22.3443 30.2255-22.3443C29.5095-22.3443 28.8825-22.0843 28.3455-21.5633C27.8085-21.0423 27.5395-20.4073 27.5395-19.6593L27.5395-14.2393ZM68.5554-72.1982L78.2234-65.0202C79.3954-64.1412 80.4613-63.8732 81.4213-64.2142C82.3813-64.5562 82.8623-65.4762 82.8623-66.9732L82.8623-71.4172L83.6433-71.4172C86.1823-71.4172 88.3963-70.8552 90.2843-69.7322C92.1713-68.6092 93.6363-67.0462 94.6783-65.0442C95.7203-63.0422 96.2403-60.7072 96.2403-58.0382L96.2403-52.6182C96.2403-51.8692 96.5093-51.2342 97.0463-50.7132C97.5833-50.1932 98.2103-49.9322 98.9263-49.9322C99.6753-49.9322 100.31-50.1932 100.83-50.7132C101.351-51.2342 101.612-51.8692 101.612-52.6182L101.612-58.0862C101.612-61.7322 100.863-64.9312 99.3653-67.6812C97.8683-70.4322 95.7773-72.5722 93.0913-74.1022C90.4063-75.6322 87.2723-76.3972 83.6923-76.3972L82.8623-76.3972L82.8623-81.2802C82.8623-82.8421 82.3813-83.7941 81.4213-84.1361C80.4613-84.4781 79.3954-84.2091 78.2234-83.3311L68.5554-76.1042C67.7094-75.4532 67.2864-74.7942 67.2864-74.1262C67.2864-73.4592 67.7094-72.8162 68.5554-72.1982Z"/>
  </g>
 </g>
</svg>
